<svg height="512" viewBox="0 0 128 128" width="512" xmlns="http://www.w3.org/2000/svg"><g><path d="m22.458 35.911h83.084v10.689h-83.084z" fill="#8c3f07"/><path d="m100.711 46.6a37.1 37.1 0 0 1 -73.422 0z" fill="#ef983b"/><path d="m96.55 118.741a3.834 3.834 0 0 1 -7.54.98l-11.69-43.84a36.281 36.281 0 0 0 6.99-3.58l12.11 45.45a3.741 3.741 0 0 1 .13.99z" fill="#8c3f07"/><path d="m64 78.351a37.388 37.388 0 0 0 3.84-.2v40.59a3.84 3.84 0 0 1 -7.68 0v-40.59a37.388 37.388 0 0 0 3.84.2z" fill="#8c3f07"/><path d="m43.69 72.3a36.281 36.281 0 0 0 6.99 3.58l-11.69 43.84a3.834 3.834 0 0 1 -7.54-.98 3.741 3.741 0 0 1 .13-.99z" fill="#8c3f07"/><path d="m65.506 70.493a1.75 1.75 0 0 1 -.093-3.5 25.511 25.511 0 0 0 15.411-6.208 1.75 1.75 0 1 1 2.285 2.651 28.978 28.978 0 0 1 -17.509 7.055z" fill="#d87c30"/><path d="m86.781 58.463a1.75 1.75 0 0 1 -1.446-2.734 25.675 25.675 0 0 0 1.9-3.285 1.75 1.75 0 0 1 3.152 1.522 29.393 29.393 0 0 1 -2.157 3.734 1.749 1.749 0 0 1 -1.449.763z" fill="#d87c30"/><g fill="#422002"><path d="m63.92 31.906a1.751 1.751 0 0 1 -1.57-2.521l2.464-5.021a3.511 3.511 0 0 0 -1.591-4.684 7 7 0 0 1 -3.074-9.567l2-3.758a1.75 1.75 0 1 1 3.09 1.645l-2 3.758a3.5 3.5 0 0 0 1.538 4.786 7.018 7.018 0 0 1 3.179 9.362l-2.463 5.021a1.75 1.75 0 0 1 -1.573.979z"/><path d="m79.764 31.906a1.751 1.751 0 0 1 -1.57-2.521l2.464-5.022a3.51 3.51 0 0 0 -1.591-4.683 7 7 0 0 1 -3.074-9.567l2-3.758a1.75 1.75 0 0 1 3.091 1.645l-2 3.758a3.5 3.5 0 0 0 1.538 4.786 7.018 7.018 0 0 1 3.18 9.362l-2.464 5.022a1.751 1.751 0 0 1 -1.574.978z"/><path d="m48.076 31.906a1.732 1.732 0 0 1 -.769-.179 1.751 1.751 0 0 1 -.8-2.342l2.463-5.021a3.511 3.511 0 0 0 -1.59-4.684 7 7 0 0 1 -3.074-9.567l2-3.758a1.75 1.75 0 0 1 3.094 1.645l-2 3.758a3.5 3.5 0 0 0 1.538 4.786 7.019 7.019 0 0 1 3.179 9.362l-2.463 5.021a1.751 1.751 0 0 1 -1.578.979z"/><path d="m86.154 99.186h-44.308a1.75 1.75 0 0 1 0-3.5h44.308a1.75 1.75 0 0 1 0 3.5z"/></g></g></svg>