<svg height="512" viewBox="0 0 128 128" width="512" xmlns="http://www.w3.org/2000/svg"><g><path d="m86.616 36.13v76.355a9.209 9.209 0 0 1 -9.209 9.209h-42.164a9.209 9.209 0 0 1 -9.209-9.209v-76.355z" fill="#f2e7cb"/><path d="m88.076 24.1c0-.053.008-.1.008-.157a8.515 8.515 0 0 0 -8.293-8.721 8.071 8.071 0 0 0 -5.953 2.657 12.3 12.3 0 0 0 -22.818-5.6 8.342 8.342 0 0 0 -7.863-5.964 8.515 8.515 0 0 0 -8.293 8.721 9.281 9.281 0 0 0 .073 1.1 7.935 7.935 0 0 0 -1.733-.194 8.473 8.473 0 0 0 -8.263 8.092 6.067 6.067 0 0 0 -5.082 5.983v.051a6.07 6.07 0 0 0 6.07 6.07h23.021v29.285a3.4 3.4 0 0 0 3.4 3.4h2.184a3.4 3.4 0 0 0 3.4-3.4v-11.849a3.4 3.4 0 0 1 3.4-3.4 3.4 3.4 0 0 0 3.4-3.4v-.849a3.4 3.4 0 0 1 3.4-3.4h1.275a3.4 3.4 0 0 1 3.4 3.4v5.736a3.4 3.4 0 0 0 3.4 3.4h.85a3.4 3.4 0 0 0 3.4-3.4v-15.531h6.269a6.07 6.07 0 0 0 6.07-6.07v-.051a6.068 6.068 0 0 0 -4.722-5.909z" fill="#ffde3e"/><path d="m86.616 87.483h13.418v-34.966h-13.418v-8.583h14.895a6.63 6.63 0 0 1 6.63 6.63v38.872a6.63 6.63 0 0 1 -6.63 6.63h-14.895z" fill="#f2e7cb"/><path d="m61.262 106.382h-24.725a1.75 1.75 0 0 1 0-3.5h24.725a1.75 1.75 0 0 1 0 3.5z" fill="#e0d2b3"/><path d="m76.113 106.382h-6.64a1.75 1.75 0 0 1 0-3.5h6.64a1.75 1.75 0 0 1 0 3.5z" fill="#e0d2b3"/><g fill="#efcb37"><path d="m65.113 23.394a1.751 1.751 0 0 1 -1.75-1.75 2.951 2.951 0 1 0 -5.9 0 1.75 1.75 0 0 1 -3.5 0 6.451 6.451 0 1 1 12.9 0 1.751 1.751 0 0 1 -1.75 1.75z"/><path d="m48.634 28.95a1.751 1.751 0 0 1 -1.75-1.75 3.541 3.541 0 1 0 -7.082 0 1.75 1.75 0 0 1 -3.5 0 7.041 7.041 0 1 1 14.082 0 1.751 1.751 0 0 1 -1.75 1.75z"/><path d="m76.719 32.6a1.75 1.75 0 0 1 -1.75-1.75 2.832 2.832 0 1 0 -5.663 0 1.75 1.75 0 0 1 -3.5 0 6.332 6.332 0 1 1 12.663 0 1.751 1.751 0 0 1 -1.75 1.75z"/></g></g></svg>