<svg height="512" viewBox="0 0 128 128" width="512" xmlns="http://www.w3.org/2000/svg"><g><path d="m85.9 41.953c1.418-10.43-1.2-20.424-8.187-27.411l-63.171 63.168c6.987 6.99 16.984 9.606 27.416 8.19l-.006.006c-1.42 10.432 1.209 20.427 8.2 27.414l63.168-63.168c-6.992-6.992-16.99-9.62-27.42-8.199z" fill="#ffde3e"/><path d="m117.94 48.4-4.62 1.75c-6.99-6.99-16.99-9.62-27.42-8.2 1.42-10.43-1.2-20.42-8.19-27.41l1.89-4.48a5.1 5.1 0 0 1 8.9-1.83l1.89 2.37a5.106 5.106 0 0 0 5.63 1.65l2.4-.83a5.106 5.106 0 0 1 6.75 4.81 4.73 4.73 0 0 1 -.07.83 5.094 5.094 0 0 0 5 5.91 4.762 4.762 0 0 0 .84-.07 5.1 5.1 0 0 1 5.64 6.68l-.83 2.4a5.106 5.106 0 0 0 1.65 5.63l2.37 1.89a5.1 5.1 0 0 1 -1.83 8.9z" fill="#64bc0f"/><path d="m50.15 113.32-1.75 4.62a5.1 5.1 0 0 1 -8.9 1.83l-1.89-2.37a5.106 5.106 0 0 0 -5.63-1.65l-2.4.83a5.1 5.1 0 0 1 -6.68-5.64 4.762 4.762 0 0 0 .07-.84 5.094 5.094 0 0 0 -5.91-5 4.73 4.73 0 0 1 -.83.07 5.106 5.106 0 0 1 -4.81-6.75l.83-2.4a5.106 5.106 0 0 0 -1.65-5.63l-2.37-1.89a5.1 5.1 0 0 1 1.83-8.9l4.48-1.89c6.99 6.99 16.98 9.61 27.41 8.19-1.42 10.43 1.21 20.43 8.2 27.42z" fill="#64bc0f"/><path d="m42.43 99.08-.5.5a9.652 9.652 0 1 1 -13.65-13.65l.49-.5.01-.01a36.861 36.861 0 0 0 13.17.48 36.926 36.926 0 0 0 .48 13.18z" fill="#ef3829"/><path d="m102.41 35.1a9.648 9.648 0 0 1 -2.83 6.83l-.5.5h-.01a36.87 36.87 0 0 0 -13.17-.48 37.1 37.1 0 0 0 -.47-13.17v-.01l.5-.49a9.655 9.655 0 0 1 16.48 6.82z" fill="#ef3829"/><g fill="#efcb37"><path d="m71.213 56.938h-.089a1.751 1.751 0 0 1 -1.66-1.835l.149-2.989a1.769 1.769 0 0 1 1.836-1.661 1.75 1.75 0 0 1 1.66 1.835l-.149 2.988a1.752 1.752 0 0 1 -1.747 1.662z"/><path d="m70.734 38.3a1.751 1.751 0 0 1 -1.514-2.627l1.87-3.23a1.75 1.75 0 0 1 3.029 1.757l-1.869 3.23a1.75 1.75 0 0 1 -1.516.87z"/><path d="m51.7 73.3a1.75 1.75 0 0 1 -.808-3.3l3.379-1.754a1.75 1.75 0 1 1 1.612 3.106l-3.383 1.748a1.752 1.752 0 0 1 -.8.2z"/><path d="m36.585 75.023a1.75 1.75 0 0 1 -1.747-1.673l-.163-3.769a1.75 1.75 0 0 1 1.672-1.824 1.779 1.779 0 0 1 1.825 1.672l.163 3.768a1.751 1.751 0 0 1 -1.673 1.825z"/><path d="m56.562 57.41a1.732 1.732 0 0 1 -.562-.092l-2.72-.917a1.75 1.75 0 0 1 1.12-3.316l2.72.917a1.75 1.75 0 0 1 -.559 3.408z"/><path d="m94.522 58.271a1.75 1.75 0 0 1 -1.749-1.7l-.072-2.63a1.75 1.75 0 0 1 1.7-1.8 1.726 1.726 0 0 1 1.8 1.7l.072 2.631a1.75 1.75 0 0 1 -1.7 1.8z"/><path d="m57.3 96.474a1.743 1.743 0 0 1 -.755-.172l-2.845-1.363a1.75 1.75 0 1 1 1.512-3.156l2.842 1.363a1.75 1.75 0 0 1 -.758 3.328z"/><path d="m75.409 78.061a1.75 1.75 0 0 1 -.635-3.381l2.212-.861a1.75 1.75 0 1 1 1.268 3.262l-2.211.86a1.746 1.746 0 0 1 -.634.12z"/><path d="m87.64 41.76a1.548 1.548 0 0 1 0 .43c-1.47 10.81-6.97 21.45-15.49 29.96s-19.15 14.02-29.96 15.49a1.785 1.785 0 0 1 -.23.02.68.68 0 0 1 -.2-.02c.04-.58.11-1.16.19-1.74-.58.08-1.15.15-1.72.19a1.733 1.733 0 0 1 1.49-1.92c10.05-1.37 19.98-6.51 27.96-14.49s13.12-17.91 14.49-27.96a1.741 1.741 0 0 1 1.92-1.5c-.04.57-.11 1.15-.19 1.73.58-.08 1.16-.15 1.74-.19z"/></g></g></svg>