<svg height="512" viewBox="0 0 128 128" width="512" xmlns="http://www.w3.org/2000/svg"><g><path d="m22.833 47.454c2.9-5.539 7.471-8.629 10.317-15.4a3.479 3.479 0 0 1 4.985 0 3.479 3.479 0 0 1 4.985 0c2.846 6.775 7.422 9.865 10.317 15.4z" fill="#ef983b"/><path d="m41.139 20.276v10.754a3.567 3.567 0 0 0 -3 1.019 3.565 3.565 0 0 0 -3-1.019v-10.754c0-3.275-2.358-4.473-5.074-7.109a3.924 3.924 0 0 1 2.876-6.861 5.563 5.563 0 0 1 5.2 3.108 5.564 5.564 0 0 1 5.2-3.108 3.923 3.923 0 0 1 2.875 6.861c-2.716 2.633-5.077 3.833-5.077 7.109z" fill="#f2e7cb"/><path d="m105.167 47.454c-2.9-5.539-7.471-8.629-10.317-15.4a3.48 3.48 0 0 0 -4.986 0 3.479 3.479 0 0 0 -4.985 0c-2.846 6.775-7.421 9.865-10.317 15.4z" fill="#ef983b"/><path d="m86.861 20.276v10.754a3.566 3.566 0 0 1 3 1.019 3.566 3.566 0 0 1 3-1.019v-10.754c0-3.275 2.358-4.473 5.073-7.109a3.923 3.923 0 0 0 -2.875-6.861 5.562 5.562 0 0 0 -5.2 3.108 5.564 5.564 0 0 0 -5.2-3.108 3.923 3.923 0 0 0 -2.875 6.861c2.716 2.633 5.077 3.833 5.077 7.109z" fill="#f2e7cb"/><path d="m79.3 47.454c-2.9-5.539-7.471-8.629-10.317-15.4a3.479 3.479 0 0 0 -4.985 0 3.479 3.479 0 0 0 -4.985 0c-2.846 6.775-7.422 9.865-10.317 15.4z" fill="#ef983b"/><rect fill="#ffde3e" height="16.546" rx="6.072" width="115.387" x="6.306" y="47.454"/><path d="m114.895 64-6.847 57.694h-86.416l-8.527-57.694z" fill="#ef3829"/><circle cx="64" cy="92.847" fill="#f2e7cb" r="17.292"/><path d="m61 20.276v10.754a3.566 3.566 0 0 1 3 1.019 3.566 3.566 0 0 1 3-1.019v-10.754c0-3.276 2.361-4.476 5.077-7.109a3.924 3.924 0 0 0 -2.877-6.861 5.564 5.564 0 0 0 -5.2 3.108 5.564 5.564 0 0 0 -5.2-3.108 3.924 3.924 0 0 0 -2.875 6.861c2.714 2.633 5.075 3.833 5.075 7.109z" fill="#f2e7cb"/><g fill="#d12626"><path d="m99.174 113.969a1.826 1.826 0 0 1 -.208-.012 1.75 1.75 0 0 1 -1.532-1.944l1.831-15.427a1.75 1.75 0 1 1 3.476.412l-1.831 15.427a1.751 1.751 0 0 1 -1.736 1.544z"/><path d="m101.857 91.356a1.633 1.633 0 0 1 -.208-.012 1.75 1.75 0 0 1 -1.531-1.944l.456-3.839a1.75 1.75 0 1 1 3.475.412l-.456 3.84a1.751 1.751 0 0 1 -1.736 1.543z"/></g></g></svg>