<svg height="512" viewBox="0 0 128 128" width="512" xmlns="http://www.w3.org/2000/svg"><g><path d="m21.911 105.048a185.464 185.464 0 0 1 -5.106-41.048 185.464 185.464 0 0 1 5.106-41.048h84.178a185.464 185.464 0 0 1 5.111 41.048 185.464 185.464 0 0 1 -5.106 41.048z" fill="#ffde3e"/><g fill="#ef983b"><path d="m97.671 12.666-8.418-6.36-8.417 6.36-8.418-6.36-8.418 6.36-8.418-6.36-8.418 6.36-8.417-6.36-8.418 6.36-8.418-6.36v16.646h84.178v-16.646z"/><path d="m97.671 115.334-8.418 6.36-8.417-6.36-8.418 6.36-8.418-6.36-8.418 6.36-8.418-6.36-8.417 6.36-8.418-6.36-8.418 6.36v-16.646h84.178v16.646z"/><ellipse cx="64" cy="64" rx="32.444" ry="17.871"/></g><g fill="#8c3f07"><path d="m37.82 63.992a5.617 5.617 0 0 1 5.69-5.4 5.807 5.807 0 0 1 4.244 1.841l-2.176 1.9a2.634 2.634 0 0 0 -2.068-1.063 2.731 2.731 0 0 0 0 5.46 2.665 2.665 0 0 0 2.084-1.064l2.16 1.886a5.764 5.764 0 0 1 -4.244 1.856 5.629 5.629 0 0 1 -5.69-5.416z"/><path d="m60.2 58.774v10.452h-2.95v-4.017h-3.818v4.017h-2.952v-10.452h2.952v3.8h3.818v-3.8z"/><path d="m63.612 58.774h2.951v10.452h-2.951z"/><path d="m69.958 58.774h5a3.666 3.666 0 1 1 0 7.3h-2.049v3.15h-2.951zm4.762 4.626c.7 0 1.2-.411 1.2-.973s-.5-.974-1.2-.974h-1.811v1.947z"/><path d="m80.885 67.644 1.642-1.963a5.517 5.517 0 0 0 3.453 1.278c.807 0 1.233-.274 1.233-.73 0-.5-.365-.579-1.811-.914-2.266-.516-4.015-1.11-4.015-3.285 0-2.085 1.642-3.438 4.122-3.438a6.7 6.7 0 0 1 4.382 1.415l-1.476 2.084a5.229 5.229 0 0 0 -2.982-1.05c-.715 0-1.065.289-1.065.685 0 .532.365.7 1.857 1.019 2.433.517 3.955 1.171 3.955 3.164 0 2.206-1.689 3.5-4.306 3.5a7.471 7.471 0 0 1 -4.989-1.765z"/></g><path d="m53.581 97.556h-23.164a1.75 1.75 0 0 1 0-3.5h23.164a1.75 1.75 0 0 1 0 3.5z" fill="#efcb37"/><path d="m66.563 97.556h-4.751a1.75 1.75 0 0 1 0-3.5h4.751a1.75 1.75 0 0 1 0 3.5z" fill="#efcb37"/></g></svg>