<svg height="512" viewBox="0 0 128 128" width="512" xmlns="http://www.w3.org/2000/svg"><g><path d="m64 40.811c-27.075 0-40.157 10.729-40.157 10.729l9.418 70.154h61.478l9.418-70.154s-13.082-10.729-40.157-10.729z" fill="#ef3829"/><path d="m101.327 72.624h-74.654l3.03 22.568h68.594z" fill="#f2e7cb"/><path d="m77.177 100.26h37.119v21.433h-37.119z" fill="#ffde3e"/><path d="m110.333 100.26a8.958 8.958 0 0 0 -7.466-8.828c1.268-7.619-7.368-12.579-7.368-12.579a25.9 25.9 0 0 1 -3.91 6.382 7.353 7.353 0 0 0 -1.852 6.08 8.956 8.956 0 0 0 -8.6 8.945z" fill="#8c3f07"/><path d="m32.708 46.615c6.629-2.82 17.011-5.8 31.288-5.8s24.659 2.984 31.288 5.8a44.988 44.988 0 0 1 19.649-17.028l-3.671-7.259s-10.862 3.183-20.974 15.908a75.889 75.889 0 0 1 9.772-21.623l-7.554-4.808c-10.212 13.895-12.777 30.314-12.777 30.314a209.5 209.5 0 0 1 5.022-34.019l-8.351-1.794a176.868 176.868 0 0 0 -4.93 24.949v-.007a128.812 128.812 0 0 0 -1.017-24.942h-9.925c1.124 15.053-3.178 32.314-3.178 32.315a189.51 189.51 0 0 0 -5.75-32.315l-8.351 1.794a209.5 209.5 0 0 1 5.022 34.016s-2.565-16.416-12.777-30.311l-7.554 4.808a75.889 75.889 0 0 1 9.772 21.623c-10.107-12.725-20.982-15.908-20.982-15.908l-3.671 7.259a44.988 44.988 0 0 1 19.649 17.028z" fill="#ef983b"/><g fill="#d12626"><path d="m75.179 51.641a1.713 1.713 0 0 1 -.266-.021c-1.657-.253-3.371-.449-5.095-.582a1.75 1.75 0 0 1 .27-3.49c1.811.14 3.612.347 5.353.613a1.75 1.75 0 0 1 -.262 3.48z"/><path d="m95.958 59.356a1.737 1.737 0 0 1 -1.105-.393c-.045-.036-4.555-3.636-13.556-6.021a1.749 1.749 0 1 1 .9-3.382c9.8 2.6 14.673 6.527 14.875 6.693a1.75 1.75 0 0 1 -1.11 3.1z"/></g></g></svg>