<svg height="512" viewBox="0 0 128 128" width="512" xmlns="http://www.w3.org/2000/svg"><g><rect fill="#ef983b" height="68.733" rx="11.836" width="23.672" x="72.164" y="6.306"/><rect fill="#ef983b" height="68.733" rx="11.836" width="23.672" x="32.164" y="6.306"/><path d="m44 75.039a11.839 11.839 0 0 1 -3.591-.558h-.009v47.213h7.2v-47.214h-.005a11.81 11.81 0 0 1 -3.595.559z" fill="#ffde3e"/><path d="m84 75.039a11.839 11.839 0 0 1 -3.591-.558h-.009v47.213h7.2v-47.214a11.81 11.81 0 0 1 -3.6.559z" fill="#ffde3e"/><g fill="#d87c30"><path d="m83.542 62.067a1.748 1.748 0 0 1 -1.564-2.532l1.781-3.562a2.88 2.88 0 0 0 -.539-3.327l-.914-.914a6.378 6.378 0 0 1 0-9.022 2.885 2.885 0 0 0 0-4.074 6.381 6.381 0 0 1 0-9.023l.913-.914a2.878 2.878 0 0 0 .54-3.326l-1.781-3.562a1.75 1.75 0 1 1 3.13-1.565l1.782 3.563a6.371 6.371 0 0 1 -1.2 7.364l-.913.914a2.881 2.881 0 0 0 0 4.074 6.389 6.389 0 0 1 0 9.024 2.88 2.88 0 0 0 0 4.073l.914.914a6.371 6.371 0 0 1 1.2 7.365l-1.783 3.563a1.748 1.748 0 0 1 -1.566.967z"/><path d="m43.542 62.067a1.748 1.748 0 0 1 -1.564-2.532l1.781-3.562a2.88 2.88 0 0 0 -.539-3.327l-.914-.914a6.378 6.378 0 0 1 0-9.022 2.885 2.885 0 0 0 0-4.074 6.381 6.381 0 0 1 0-9.023l.913-.914a2.878 2.878 0 0 0 .54-3.326l-1.781-3.562a1.75 1.75 0 1 1 3.13-1.565l1.782 3.563a6.371 6.371 0 0 1 -1.2 7.364l-.913.914a2.881 2.881 0 0 0 0 4.074 6.389 6.389 0 0 1 0 9.024 2.88 2.88 0 0 0 0 4.073l.914.914a6.371 6.371 0 0 1 1.2 7.365l-1.783 3.563a1.748 1.748 0 0 1 -1.566.967z"/></g></g></svg>