<svg height="512" viewBox="0 0 128 128" width="512" xmlns="http://www.w3.org/2000/svg"><g><path d="m111.071 65.547-.01.01c.827-2.43.82-4.749-.455-6.629-5.206-7.684-15.181-12.651-15.181-12.651s-.931-.491-2.49-1.163l-.008.02a8.727 8.727 0 0 0 -4.127-5.894c-10.475-5.74-24.8-5.575-24.8-5.575s-14.325-.165-24.8 5.575a8.727 8.727 0 0 0 -4.13 5.894l-.008-.02c-1.559.672-2.49 1.163-2.49 1.163s-9.97 4.967-15.181 12.651c-1.275 1.88-1.282 4.2-.455 6.629l-.01-.01c-1.508 2.294-11.9 18.469-10.491 26.377 1.48 8.3 19.917-7.174 26.059-11.112l-.008-.009c2.929 1.137 5.576 1.267 7.22-.18a43.631 43.631 0 0 1 6.684-4.955l-.01-.026c1.88 1.357 3.807 1.981 5.635 1.518 7.64-1.935 11.985-1.784 11.985-1.784s4.345-.151 11.982 1.784c1.828.463 3.755-.161 5.635-1.518l-.01.026a43.631 43.631 0 0 1 6.684 4.955c1.644 1.447 4.291 1.317 7.22.18l-.008.009c6.142 3.938 24.579 19.413 26.059 11.112 1.411-7.908-8.983-24.083-10.491-26.377z" fill="#ef983b"/><g fill="#d87c30"><path d="m83.19 76.66c-.64-.42-1.17-.75-1.58-.99l.01-.03a10.268 10.268 0 0 1 -1.49.91 1.733 1.733 0 0 1 .47-2.31c6.28-4.54 12.82-19.85 10.64-28.69a1.746 1.746 0 0 1 1.15-2.08 12.114 12.114 0 0 1 .54 1.64c.87.38 1.55.7 1.97.9 1.66 10.14-4.81 25.15-11.71 30.65z"/><path d="m47.89 76.56a10.526 10.526 0 0 1 -1.51-.92l.01.03c-.42.24-.94.57-1.58 1h-.01c-6.9-5.52-13.36-20.51-11.69-30.66.42-.2 1.1-.52 1.96-.9a11.807 11.807 0 0 1 .54-1.65 1.731 1.731 0 0 1 1.15 2.07c-2.19 8.87 4.35 24.18 10.66 28.72a1.733 1.733 0 0 1 .47 2.31z"/><path d="m112.24 67.38c-2.69 6.19-9.45 12.06-15.02 14.6-.64-.46-1.22-.85-1.72-1.17-.57.21-1.12.39-1.66.53a1.736 1.736 0 0 1 1.03-2.16c5.96-2.31 12.76-8.94 14.55-14.2a1.727 1.727 0 0 1 2.07-1.12 9.019 9.019 0 0 1 -.43 1.7l.01-.01c.22.34.63.97 1.17 1.83z"/><path d="m34.16 81.34c-.54-.14-1.09-.32-1.66-.53-.5.32-1.08.71-1.72 1.17-5.57-2.54-12.33-8.41-15.02-14.6.54-.86.95-1.49 1.17-1.83l.01.01a9.019 9.019 0 0 1 -.43-1.7 1.727 1.727 0 0 1 2.07 1.12c1.79 5.26 8.59 11.89 14.55 14.2a1.736 1.736 0 0 1 1.03 2.16z"/><path d="m75.481 71.008a1.749 1.749 0 0 1 -1.306-2.908 28.952 28.952 0 0 0 5.775-10.016 1.75 1.75 0 1 1 3.315 1.125 32.456 32.456 0 0 1 -6.475 11.212 1.746 1.746 0 0 1 -1.309.587z"/><path d="m83.289 52.636c-.06 0-.12 0-.181-.009a1.75 1.75 0 0 1 -1.562-1.92 28.2 28.2 0 0 0 .091-5.394 1.749 1.749 0 0 1 3.476-.4 30.988 30.988 0 0 1 -.085 6.152 1.75 1.75 0 0 1 -1.739 1.571z"/></g></g></svg>