<svg height="512" viewBox="0 0 128 128" width="512" xmlns="http://www.w3.org/2000/svg"><g><path d="m95.975 70.907a19.671 19.671 0 0 1 -13.915-5.745 32.207 32.207 0 0 1 -36.12 0 19.643 19.643 0 0 1 -20.851 4.467v52.065h77.822v-52.065a19.639 19.639 0 0 1 -6.936 1.278z" fill="#ffde3e"/><path d="m95.975 31.444c-.188 0-.37.023-.557.028a32.195 32.195 0 0 0 -62.836 0c-.187-.005-.369-.028-.557-.028a19.732 19.732 0 1 0 13.915 33.718 32.207 32.207 0 0 0 36.12 0 19.731 19.731 0 1 0 13.915-33.718z" fill="#8c3f07"/><path d="m43.74 67.05v54.64h-18.65v-52.06a19.607 19.607 0 0 0 18.65-2.58z" fill="#ef983b"/><path d="m82.06 65.162a32.046 32.046 0 0 1 -18.06 5.538v50.992h20.26v-54.668a19.864 19.864 0 0 1 -2.2-1.862z" fill="#ef983b"/><g fill="#ffde3e"><path d="m66.22 54.874a1.743 1.743 0 0 1 -.976-.3l-4.443-3a1.75 1.75 0 1 1 1.956-2.9l4.443 3a1.75 1.75 0 0 1 -.98 3.2z"/><path d="m73.052 29.649a1.75 1.75 0 0 1 -1.268-2.955l2.447-2.576a1.75 1.75 0 0 1 2.538 2.41l-2.447 2.577a1.745 1.745 0 0 1 -1.27.544z"/><path d="m54.511 33.513a1.762 1.762 0 0 1 -.25-.018l-6.311-.9a1.75 1.75 0 0 1 .5-3.465l6.31.9a1.75 1.75 0 0 1 -.245 3.483z"/><path d="m93.659 49.61a1.75 1.75 0 0 1 -.712-3.349l4.636-2.061a1.75 1.75 0 0 1 1.422 3.2l-4.636 2.06a1.739 1.739 0 0 1 -.71.15z"/><path d="m31.31 54.2a1.749 1.749 0 0 1 -1.71-2.132l.795-3.556a1.75 1.75 0 0 1 3.416.763l-.8 3.557a1.749 1.749 0 0 1 -1.701 1.368z"/></g></g></svg>