<svg height="512" viewBox="0 0 128 128" width="512" xmlns="http://www.w3.org/2000/svg"><g><path d="m64 6.3a57.7 57.7 0 1 0 57.7 57.7 57.7 57.7 0 0 0 -57.7-57.7zm0 76.336a18.635 18.635 0 1 1 18.635-18.636 18.635 18.635 0 0 1 -18.635 18.635z" fill="#ef983b"/><path d="m106.721 52.841a15.781 15.781 0 0 1 -4.621-11.159 15.78 15.78 0 0 0 -15.782-15.782 15.781 15.781 0 0 1 -11.159-4.622 15.781 15.781 0 0 0 -22.318 0 15.781 15.781 0 0 1 -11.159 4.622 15.78 15.78 0 0 0 -15.782 15.782 15.781 15.781 0 0 1 -4.622 11.159 15.781 15.781 0 0 0 0 22.318 15.781 15.781 0 0 1 4.622 11.159 15.78 15.78 0 0 0 15.782 15.782 15.781 15.781 0 0 1 11.159 4.622 15.781 15.781 0 0 0 22.318 0 15.781 15.781 0 0 1 11.159-4.622 15.78 15.78 0 0 0 15.782-15.782 15.781 15.781 0 0 1 4.622-11.159 15.781 15.781 0 0 0 -.001-22.318zm-42.721 29.794a18.635 18.635 0 1 1 18.635-18.635 18.635 18.635 0 0 1 -18.635 18.635z" fill="#ffde3e"/><g fill="#8c3f07"><path d="m97.48 66.846a1.752 1.752 0 0 1 -1.567-.968l-1.861-3.721a1.75 1.75 0 0 1 3.131-1.566l1.861 3.722a1.751 1.751 0 0 1 -1.564 2.533z"/><path d="m38.233 46a1.75 1.75 0 0 1 -1.375-2.831l3.722-4.736a1.749 1.749 0 1 1 2.751 2.167l-3.721 4.732a1.746 1.746 0 0 1 -1.377.668z"/><path d="m59.884 96.459a1.75 1.75 0 0 1 -.286-3.476l6.089-1.015a1.75 1.75 0 0 1 .576 3.452l-6.09 1.015a1.779 1.779 0 0 1 -.289.024z"/><path d="m91.686 89.693a1.723 1.723 0 0 1 -.57-.1l-4.906-1.687a1.75 1.75 0 1 1 1.141-3.306l4.905 1.692a1.75 1.75 0 0 1 -.57 3.4z"/><path d="m37.388 89.693a1.75 1.75 0 0 1 -1.626-2.393l1.691-4.269a1.75 1.75 0 0 1 3.254 1.289l-1.691 4.269a1.751 1.751 0 0 1 -1.628 1.104z"/><path d="m65 35.219a1.75 1.75 0 0 1 -1.577-.99l-2.068-4.282a1.75 1.75 0 1 1 3.151-1.522l2.068 4.283a1.751 1.751 0 0 1 -1.574 2.511z"/><path d="m84.557 41.265a1.75 1.75 0 0 1 -.377-3.459l4.675-1.035a1.75 1.75 0 1 1 .756 3.417l-4.675 1.035a1.761 1.761 0 0 1 -.379.042z"/><path d="m35.649 67.323a1.76 1.76 0 0 1 -.509-.076l-5.173-1.573a1.75 1.75 0 0 1 1.018-3.348l5.172 1.574a1.75 1.75 0 0 1 -.508 3.425z"/></g></g></svg>