<svg height="512" viewBox="0 0 128 128" width="512" xmlns="http://www.w3.org/2000/svg"><g><path d="m92.635 105.907a45.586 45.586 0 0 1 2.182-25.478 45.477 45.477 0 0 0 0-32.858 45.586 45.586 0 0 1 -2.182-25.478l.755-3.771a7.874 7.874 0 0 1 -1.548-2.522 7.885 7.885 0 0 0 -10.168-4.583l-2.123.8a7.883 7.883 0 0 1 -8.369-1.8l-1.605-1.601a7.887 7.887 0 0 0 -11.154 0 7.886 7.886 0 0 1 -8.818 1.614 7.887 7.887 0 0 0 -10.431 3.949l-.933 2.069a7.885 7.885 0 0 1 -7.19 4.646h-2.269a7.888 7.888 0 0 0 -7.888 7.887 7.888 7.888 0 0 1 -5.094 7.377 7.885 7.885 0 0 0 -4.583 10.168l.8 2.123a7.883 7.883 0 0 1 -1.8 8.369l-1.6 1.605a7.885 7.885 0 0 0 0 11.154 7.888 7.888 0 0 1 1.613 8.823 7.886 7.886 0 0 0 3.95 10.431l2.068.933a7.885 7.885 0 0 1 4.646 7.19v2.27a7.888 7.888 0 0 0 7.888 7.887 7.887 7.887 0 0 1 7.376 5.094 7.886 7.886 0 0 0 10.169 4.583l2.122-.8a7.883 7.883 0 0 1 8.369 1.8l1.605 1.605a7.887 7.887 0 0 0 11.154 0 7.886 7.886 0 0 1 8.823-1.623 7.887 7.887 0 0 0 10.431-3.949l.933-2.069a7.881 7.881 0 0 1 3.319-3.631z" fill="#f2e7cb"/><circle cx="64" cy="64" fill="#ffde3e" r="24.812"/><path d="m95.8 6.306-3.165 15.787a45.586 45.586 0 0 0 2.182 25.478 45.477 45.477 0 0 1 0 32.858 45.586 45.586 0 0 0 -2.182 25.478l3.165 15.787h23.8l-3.162-15.787a45.6 45.6 0 0 1 2.182-25.478 45.477 45.477 0 0 0 0-32.858 45.6 45.6 0 0 1 -2.182-25.478l3.162-15.787z" fill="#8c3f07"/><path d="m74.161 75.91a1.75 1.75 0 0 1 -1.238-2.987 12.533 12.533 0 0 0 3.696-8.923 1.75 1.75 0 0 1 3.5 0 16.01 16.01 0 0 1 -4.719 11.4 1.745 1.745 0 0 1 -1.239.51z" fill="#efcb37"/><path d="m74.167 55.6a1.743 1.743 0 0 1 -1.239-.514 12.574 12.574 0 0 0 -4.183-2.786 1.75 1.75 0 1 1 1.318-3.242 16.049 16.049 0 0 1 5.342 3.548 1.751 1.751 0 0 1 -1.238 2.994z" fill="#efcb37"/><path d="m31.9 47.224a1.75 1.75 0 0 1 -1.51-2.624 39.077 39.077 0 0 1 18.886-16.511 1.75 1.75 0 1 1 1.329 3.238 35.564 35.564 0 0 0 -17.186 15.023 1.75 1.75 0 0 1 -1.519.874z" fill="#e0d2b3"/><path d="m26.994 63.913h-.086a1.75 1.75 0 0 1 -1.663-1.833 38.863 38.863 0 0 1 .955-6.88 1.75 1.75 0 0 1 3.409.791 35.333 35.333 0 0 0 -.868 6.254 1.751 1.751 0 0 1 -1.747 1.668z" fill="#e0d2b3"/><path d="m109.42 121.35a2.041 2.041 0 0 1 .03.34h-3.54l-3.09-15.44a47.165 47.165 0 0 1 2.27-26.47 44.028 44.028 0 0 0 0-31.56 47.165 47.165 0 0 1 -2.27-26.47l3.09-15.44h3.54a2.041 2.041 0 0 1 -.03.34l-3.17 15.79a43.611 43.611 0 0 0 2.09 24.48 46.943 46.943 0 0 1 0 34.16 43.611 43.611 0 0 0 -2.09 24.48z" fill="#723307"/></g></svg>