<svg height="512" viewBox="0 0 128 128" width="512" xmlns="http://www.w3.org/2000/svg"><g><path d="m22.221 19.188h9.67v24.89a62.029 62.029 0 0 0 -9.66 3.7h-.01z" fill="#efcb37"/><path d="m51.231 19.188v21.74a92.014 92.014 0 0 0 -9.67.98v-22.72z" fill="#efcb37"/><path d="m70.57 19.19v16.51a42.526 42.526 0 0 0 -2.9 5.81q-3.195-.4-6.77-.58v-21.74z" fill="#efcb37"/><path d="m80.24 6.31v18.08a44.558 44.558 0 0 0 -9.67 11.31v-29.39z" fill="#ffde3e"/><path d="m60.9 6.308v34.62c-1.55-.08-3.17-.12-4.83-.12s-3.28.04-4.84.12v-34.62z" fill="#ffde3e"/><path d="m41.561 6.308v35.6a77.393 77.393 0 0 0 -9.67 2.17v-37.77z" fill="#ffde3e"/><path d="m88.147 111.678c-11.081-9.3-23.942-25.7-23.942-51.735a48.179 48.179 0 0 1 3.472-18.436 94.42 94.42 0 0 0 -11.614-.7c-27.075 0-40.157 10.729-40.157 10.729l9.418 70.153h47.076a65.645 65.645 0 0 0 15.744-10.009z" fill="#ef3829"/><path d="m88.149 19.188s-23.944 10.551-23.944 40.755c0 45.733 39.693 61.749 39.693 61.749h-31.498s39.692-16.016 39.692-61.749c0-30.2-23.944-40.755-23.944-40.755z" fill="#ef983b"/><path d="m88.15 111.68a65.608 65.608 0 0 0 15.75 10.01h-31.5a65.608 65.608 0 0 0 15.75-10.01z" fill="#ef983b"/><path d="m88.15 111.68a65.608 65.608 0 0 0 15.75 10.01h-31.5a65.608 65.608 0 0 0 15.75-10.01z" fill="#ef983b"/><path d="m65.294 72.622h-46.558l3.03 22.568h52.051a63.975 63.975 0 0 1 -8.523-22.568z" fill="#f2e7cb"/><circle cx="93.03" cy="37.54" fill="#f2e7cb" r="3.386"/><g fill="#d87c30"><path d="m109.43 43.6c-1.91 2.79-7.75 9.16-21.28 9.16-13.48 0-19.33-6.32-21.27-9.17a44.137 44.137 0 0 1 1.79-4.34 8.725 8.725 0 0 0 .55 1.46l.03.06a13.015 13.015 0 0 0 4.01 4.37c2.87 2.08 7.56 4.12 14.89 4.12 14.81 0 18.86-8.4 18.89-8.49a8.783 8.783 0 0 0 .59-1.52 45.39 45.39 0 0 1 1.8 4.35z"/><path d="m94.463 92.038a1.75 1.75 0 0 1 -1.495-2.657 58.03 58.03 0 0 0 6.377-14.863 1.75 1.75 0 0 1 3.378.918 61.481 61.481 0 0 1 -6.762 15.764 1.748 1.748 0 0 1 -1.498.838z"/><path d="m102.465 69.728a1.723 1.723 0 0 1 -.236-.016 1.75 1.75 0 0 1 -1.5-1.968 31.974 31.974 0 0 0 .319-3.744 1.75 1.75 0 0 1 3.5 0 34.328 34.328 0 0 1 -.351 4.213 1.75 1.75 0 0 1 -1.732 1.515z"/><path d="m74.761 70.646a20.725 20.725 0 0 1 -2.857-.177 1.749 1.749 0 0 1 -.995-2.95 18.7 18.7 0 0 0 4.744-10.33 1.75 1.75 0 0 1 3.489.286 22.746 22.746 0 0 1 -3.453 9.635c3.351-.155 8.418-1.166 10.944-5.559a1.75 1.75 0 1 1 3.034 1.749c-3.667 6.383-10.888 7.346-14.906 7.346z"/></g></g></svg>