<svg height="512" viewBox="0 0 128 128" width="512" xmlns="http://www.w3.org/2000/svg"><g><path d="m6.306 80.867h115.387v12.193h-115.387z" fill="#ef983b"/><path d="m6.306 27.554h70.889v53.313h-70.889z" fill="#ef3829"/><path d="m77.195 80.867v-45.451h26.34l18.159 20.409v25.042z" fill="#ef983b"/><path d="m100.939 41.484h-13.171v14.341h25.93z" fill="#f2e7cb"/><circle cx="29.86" cy="86.936" fill="#8c3f07" r="13.51"/><circle cx="98.14" cy="86.936" fill="#8c3f07" r="13.51"/><path d="m121.694 63.235h-5.376a3.688 3.688 0 0 0 -3.688 3.687 3.688 3.688 0 0 0 3.688 3.688h5.376z" fill="#f2e7cb"/><path d="m67.81 36.83v6.52a6.515 6.515 0 0 1 -13.03 0v-6.52z" fill="#f2e7cb"/><path d="m54.78 36.83v6.52a6.515 6.515 0 0 1 -13.03 0v-6.52z" fill="#ef983b"/><path d="m41.75 36.83v6.52a6.515 6.515 0 0 1 -13.03 0v-6.52z" fill="#f2e7cb"/><path d="m28.72 36.83v6.52a6.51 6.51 0 0 1 -13.02 0v-6.52z" fill="#ef983b"/><path d="m67.81 43.35v22.24h-52.11v-22.24a6.51 6.51 0 0 0 13.02 0 6.515 6.515 0 0 0 13.03 0 6.515 6.515 0 0 0 13.03 0 6.515 6.515 0 0 0 13.03 0z" fill="#8c3f07"/><circle cx="29.86" cy="86.936" fill="#f2e7cb" r="5.028"/><circle cx="98.14" cy="86.936" fill="#f2e7cb" r="5.028"/><path d="m92.324 64.546h-4.556a1.75 1.75 0 1 1 0-3.5h4.556a1.75 1.75 0 0 1 0 3.5z" fill="#d87c30"/></g></svg>