<svg height="512" viewBox="0 0 128 128" width="512" xmlns="http://www.w3.org/2000/svg"><g><path d="m92.342 56.437-3.172 65.257h-50.34l-3.172-65.257z" fill="#ef983b"/><path d="m29.929 46.279h68.142v10.158h-68.142z" fill="#ef983b"/><circle cx="64" cy="89.065" fill="#f2e7cb" r="15.292"/><path d="m93.478 46.279a9.932 9.932 0 0 0 -9.932-9.932h-3.274a5.749 5.749 0 0 0 -2.605-10.876h-4.278c7.572-9.312-9.48-19.165-9.48-19.165s-.58 3.3-7.664 8.739c-6.218 4.772-2.664 9.372-1.7 10.426h-4.21a5.749 5.749 0 0 0 -2.6 10.876h-3.281a9.932 9.932 0 0 0 -9.932 9.932z" fill="#8c3f07"/><path d="m83.419 31.223a5.748 5.748 0 0 1 -3.147 5.124h3.274a9.908 9.908 0 0 1 3.877.785l1.3-28.155-7.5-.347-.813 17.541a5.75 5.75 0 0 1 3.009 5.052z" fill="#f2e7cb"/><g fill="#d87c30"><path d="m60.621 114.917h-13.371a1.75 1.75 0 0 1 0-3.5h13.371a1.75 1.75 0 1 1 0 3.5z"/><path d="m71.2 114.917h-3.43a1.75 1.75 0 0 1 0-3.5h3.43a1.75 1.75 0 0 1 0 3.5z"/></g></g></svg>