<svg height="512" viewBox="0 0 128 128" width="512" xmlns="http://www.w3.org/2000/svg"><g><path d="m64 40.81c-27.075 0-40.157 10.729-40.157 10.729l9.418 70.153h61.478l9.418-70.153s-13.082-10.729-40.157-10.729z" fill="#ef3829"/><path d="m101.327 72.622h-74.654l3.03 22.568h68.594z" fill="#f2e7cb"/><g fill="#efcb37"><path d="m30.152 19.188h9.67v24.89a62.029 62.029 0 0 0 -9.66 3.7h-.01z"/><path d="m59.162 19.188v21.74a92.014 92.014 0 0 0 -9.67.98v-22.72z"/><path d="m78.5 19.188v22.72a89.417 89.417 0 0 0 -9.67-.98v-21.74z"/><path d="m97.842 19.188v28.59a63.128 63.128 0 0 0 -9.67-3.71v-24.88z"/></g><path d="m75.179 51.639a1.867 1.867 0 0 1 -.267-.02c-1.651-.253-3.365-.449-5.094-.583a1.75 1.75 0 1 1 .27-3.489c1.815.14 3.617.346 5.354.612a1.75 1.75 0 0 1 -.263 3.48z" fill="#d12626"/><path d="m95.957 59.355a1.747 1.747 0 0 1 -1.1-.393c-.044-.037-4.554-3.637-13.555-6.021a1.75 1.75 0 0 1 .9-3.383c9.8 2.6 14.673 6.528 14.875 6.694a1.75 1.75 0 0 1 -1.111 3.1z" fill="#d12626"/><path d="m88.172 6.308v37.76a79.315 79.315 0 0 0 -9.67-2.16v-35.6z" fill="#ffde3e"/><path d="m68.832 6.308v34.62c-1.55-.08-3.17-.12-4.83-.12s-3.28.04-4.84.12v-34.62z" fill="#ffde3e"/><path d="m49.492 6.308v35.6a77.393 77.393 0 0 0 -9.67 2.17v-37.77z" fill="#ffde3e"/></g></svg>