<svg height="512" viewBox="0 0 128 128" width="512" xmlns="http://www.w3.org/2000/svg"><g><path d="m117.779 71.182 1.605-1.605a7.887 7.887 0 0 0 0-11.154 7.888 7.888 0 0 1 -1.613-8.818 7.887 7.887 0 0 0 -3.949-10.431l-2.069-.933a7.887 7.887 0 0 1 -4.646-7.19v-2.27a7.888 7.888 0 0 0 -7.887-7.887 7.887 7.887 0 0 1 -7.378-5.094 7.885 7.885 0 0 0 -10.168-4.583l-2.123.8a7.883 7.883 0 0 1 -8.369-1.8l-1.605-1.601a7.887 7.887 0 0 0 -11.154 0 7.886 7.886 0 0 1 -8.818 1.614 7.887 7.887 0 0 0 -10.431 3.949l-.933 2.069a7.885 7.885 0 0 1 -7.19 4.646h-2.27a7.888 7.888 0 0 0 -7.887 7.887 7.887 7.887 0 0 1 -5.094 7.377 7.885 7.885 0 0 0 -4.583 10.168l.8 2.123a7.883 7.883 0 0 1 -1.8 8.369l-1.601 1.605a7.887 7.887 0 0 0 0 11.154 7.888 7.888 0 0 1 1.614 8.823 7.887 7.887 0 0 0 3.949 10.431l2.069.933a7.885 7.885 0 0 1 4.646 7.19v2.27a7.888 7.888 0 0 0 7.887 7.887 7.887 7.887 0 0 1 7.376 5.094 7.885 7.885 0 0 0 10.168 4.583l2.123-.8a7.883 7.883 0 0 1 8.369 1.8l1.605 1.605a7.887 7.887 0 0 0 11.154 0 7.888 7.888 0 0 1 8.824-1.623 7.887 7.887 0 0 0 10.431-3.949l.933-2.069a7.885 7.885 0 0 1 7.19-4.646h2.27a7.888 7.888 0 0 0 7.887-7.887 7.887 7.887 0 0 1 5.094-7.376 7.885 7.885 0 0 0 4.583-10.168l-.8-2.123a7.883 7.883 0 0 1 1.791-8.37z" fill="#f2e7cb"/><circle cx="64" cy="64" fill="#ffde3e" r="24.812"/><path d="m74.16 75.911a1.751 1.751 0 0 1 -1.237-2.988 12.537 12.537 0 0 0 3.696-8.923 1.75 1.75 0 0 1 3.5 0 16.014 16.014 0 0 1 -4.719 11.4 1.745 1.745 0 0 1 -1.24.511z" fill="#efcb37"/><path d="m74.166 55.6a1.745 1.745 0 0 1 -1.238-.513 12.569 12.569 0 0 0 -4.183-2.787 1.75 1.75 0 1 1 1.318-3.243 16.05 16.05 0 0 1 5.337 3.551 1.75 1.75 0 0 1 -1.234 2.992z" fill="#efcb37"/><g fill="#e0d2b3"><path d="m31.9 47.224a1.751 1.751 0 0 1 -1.51-2.624 39.082 39.082 0 0 1 18.886-16.511 1.75 1.75 0 1 1 1.33 3.238 35.551 35.551 0 0 0 -17.186 15.023 1.751 1.751 0 0 1 -1.52.874z"/><path d="m26.994 63.913h-.087a1.752 1.752 0 0 1 -1.663-1.834 38.936 38.936 0 0 1 .956-6.879 1.75 1.75 0 1 1 3.409.791 35.429 35.429 0 0 0 -.869 6.254 1.75 1.75 0 0 1 -1.746 1.668z"/><path d="m86.229 95.4a1.75 1.75 0 0 1 -1.053-3.149 35.308 35.308 0 0 0 9.264-10.36 1.75 1.75 0 1 1 3.015 1.776 38.756 38.756 0 0 1 -10.177 11.38 1.74 1.74 0 0 1 -1.049.353z"/></g></g></svg>