<svg height="512" viewBox="0 0 128 128" width="512" xmlns="http://www.w3.org/2000/svg"><g><rect fill="#ffde3e" height="21.706" rx="10.853" width="115.387" x="6.306" y="70.93"/><rect fill="#ef983b" height="21.706" rx="10.853" width="115.387" x="6.306" y="49.224"/><rect fill="#ffde3e" height="21.706" rx="10.853" width="115.387" x="6.306" y="27.517"/><rect fill="#ef983b" height="21.706" rx="10.853" width="115.387" x="6.306" y="92.636"/><path d="m64 13.657c-22.119 0-40.05 6.2-40.05 13.86v30.1a5.405 5.405 0 0 0 5.405 5.406h1.42a5.405 5.405 0 0 0 5.405-5.406v-4.089a4.3 4.3 0 0 1 4.305-4.3h2.141a4.3 4.3 0 0 1 4.305 4.3v23.749a4.505 4.505 0 0 0 4.506 4.506h2.122a4.506 4.506 0 0 0 4.506-4.506v-34.446a7.706 7.706 0 0 1 7.706-7.706h8.577a7.706 7.706 0 0 1 7.706 7.706v15.7a5.1 5.1 0 0 0 5.1 5.1h1.164a5.1 5.1 0 0 0 5.1-5.1 5.1 5.1 0 0 1 5.1-5.1h.428a5.1 5.1 0 0 0 5.1-5.1v-20.814c.004-7.655-17.927-13.86-40.046-13.86z" fill="#8c3f07"/><g fill="#723307"><path d="m56.347 23.851a1.751 1.751 0 0 1 -.145-3.495c1.918-.162 3.846-.248 5.734-.256h.007a1.75 1.75 0 0 1 .008 3.5c-1.794.007-3.629.09-5.454.245-.051.004-.097.006-.15.006z"/><path d="m33.987 29.518a1.75 1.75 0 0 1 -.787-3.318 63.042 63.042 0 0 1 14.914-4.711 1.75 1.75 0 1 1 .676 3.434 60.363 60.363 0 0 0 -14.017 4.4 1.742 1.742 0 0 1 -.786.195z"/></g></g></svg>