<svg height="512" viewBox="0 0 128 128" width="512" xmlns="http://www.w3.org/2000/svg"><g><rect fill="#ef3829" height="132.007" rx="10.751" transform="matrix(.707 .707 -.707 .707 64 -26.51)" width="21.501" x="53.249" y="-2.004"/><path d="m35.5 107.706a4.48 4.48 0 0 0 -.192 6.326l2.817 2.817c6.747 6.747 18.027 6.405 25.2-.764l52.767-52.767c7.169-7.169 7.511-18.449.764-25.2l-2.817-2.817a4.48 4.48 0 0 0 -6.326.192z" fill="#ef983b"/><path d="m20.294 92.5a4.48 4.48 0 0 1 -6.326.192l-2.817-2.817c-6.747-6.747-6.4-18.027.764-25.2l52.767-52.76c7.169-7.169 18.449-7.511 25.2-.764l2.818 2.817a4.48 4.48 0 0 1 -.192 6.326z" fill="#ef983b"/><path d="m37.163 106.04 14.811.637a8.561 8.561 0 0 0 8.8-7.072l.037-.21a8.559 8.559 0 0 1 7.556-7.035 8.56 8.56 0 0 0 7.549-7l.388-2.154a8.563 8.563 0 0 1 6.905-6.906l2.154-.388a8.56 8.56 0 0 0 7-7.549 8.559 8.559 0 0 1 7.037-7.553l.21-.037a8.561 8.561 0 0 0 7.072-8.8l-.637-14.811z" fill="#64bc0f"/><path d="m21.96 90.837-.637-14.811a8.561 8.561 0 0 1 7.072-8.8l.21-.037a8.559 8.559 0 0 0 7.035-7.556 8.56 8.56 0 0 1 7-7.549l2.154-.388a8.563 8.563 0 0 0 6.906-6.905l.388-2.154a8.56 8.56 0 0 1 7.549-7 8.559 8.559 0 0 0 7.556-7.035l.037-.21a8.561 8.561 0 0 1 8.8-7.072l14.811.637z" fill="#64bc0f"/><path d="m30.251 99.331a1.75 1.75 0 0 1 -.635-3.381l5.224-2.031a4.794 4.794 0 0 0 3.037-4.15l.1-1.576a8.3 8.3 0 0 1 7.736-7.735 4.789 4.789 0 0 0 4.465-4.466 8.3 8.3 0 0 1 7.736-7.735 4.789 4.789 0 0 0 4.465-4.466 8.3 8.3 0 0 1 7.736-7.735 4.79 4.79 0 0 0 4.465-4.466 8.3 8.3 0 0 1 7.736-7.736 4.79 4.79 0 0 0 4.466-4.465l.1-1.638a8.323 8.323 0 0 1 5.162-7.151l4.881-1.975a1.75 1.75 0 0 1 1.313 3.244l-4.881 1.975a4.8 4.8 0 0 0 -2.977 4.127l-.1 1.637a8.3 8.3 0 0 1 -7.736 7.736 4.789 4.789 0 0 0 -4.465 4.465 8.3 8.3 0 0 1 -7.736 7.736 4.791 4.791 0 0 0 -4.466 4.466 8.3 8.3 0 0 1 -7.735 7.735 4.791 4.791 0 0 0 -4.466 4.466 8.3 8.3 0 0 1 -7.736 7.735 4.79 4.79 0 0 0 -4.465 4.466l-.1 1.575a8.306 8.306 0 0 1 -5.262 7.19l-5.223 2.031a1.749 1.749 0 0 1 -.639.122z" fill="#ffde3e"/></g></svg>