<svg height="512" viewBox="0 0 128 128" width="512" xmlns="http://www.w3.org/2000/svg"><g><path d="m95.173 79.487-3.98 42.207h-54.386l-3.98-42.207z" fill="#ef983b"/><path d="m28.947 56.321h70.105v23.166h-70.105z" fill="#ef983b"/><path d="m98.555 38.9h-4.577a8.47 8.47 0 0 0 -4.969-15.334h-7.223a17.794 17.794 0 0 0 -35.572 0h-7.223a8.47 8.47 0 0 0 -4.969 15.334h-4.577a8.709 8.709 0 1 0 0 17.418h27.918v6.726a4.83 4.83 0 0 0 4.83 4.831h1.107a4.829 4.829 0 0 1 4.83 4.83v7.175a4.831 4.831 0 0 0 4.83 4.83h.53a4.83 4.83 0 0 0 4.83-4.83v-4.545a4.83 4.83 0 0 1 4.831-4.83 4.831 4.831 0 0 0 4.83-4.831v-9.353h10.574a8.709 8.709 0 1 0 0-17.418z" fill="#8c3f07"/><path d="m44.265 96.5a1.751 1.751 0 0 1 -1.741-1.586l-.424-4.502a1.75 1.75 0 1 1 3.485-.329l.425 4.506a1.75 1.75 0 0 1 -1.579 1.911c-.056 0-.112 0-.166 0z" fill="#d87c30"/><path d="m46.09 115.86a1.749 1.749 0 0 1 -1.74-1.586l-1.173-12.434a1.75 1.75 0 0 1 3.485-.328l1.172 12.434a1.751 1.751 0 0 1 -1.578 1.907c-.056.005-.111.007-.166.007z" fill="#d87c30"/><g fill="#ffde3e"><path d="m72.724 24.455a1.745 1.745 0 0 1 -1.238-.513l-3.053-3.052a1.75 1.75 0 0 1 2.475-2.475l3.053 3.053a1.75 1.75 0 0 1 -1.237 2.987z"/><path d="m53.453 35.1a1.751 1.751 0 0 1 -1.576-2.508l1.409-2.936a1.75 1.75 0 0 1 3.155 1.515l-1.409 2.929a1.751 1.751 0 0 1 -1.579 1z"/><path d="m74.284 38.723a1.75 1.75 0 0 1 -1.384-2.823l2.183-2.818a1.75 1.75 0 0 1 2.767 2.144l-2.183 2.818a1.748 1.748 0 0 1 -1.383.679z"/><path d="m38.791 48.292a1.751 1.751 0 0 1 -.87-3.271l3.289-1.878a1.75 1.75 0 0 1 1.736 3.039l-3.288 1.879a1.75 1.75 0 0 1 -.867.231z"/><path d="m73.026 58.017a1.741 1.741 0 0 1 -1.215-.491l-3.405-3.288a1.749 1.749 0 1 1 2.43-2.517l3.406 3.287a1.75 1.75 0 0 1 -1.216 3.009z"/><path d="m92.053 50.169a1.746 1.746 0 0 1 -1.008-.32l-2.66-1.878a1.75 1.75 0 0 1 2.018-2.86l2.661 1.879a1.75 1.75 0 0 1 -1.011 3.179z"/></g></g></svg>