<svg height="512" viewBox="0 0 128 128" width="512" xmlns="http://www.w3.org/2000/svg"><g><path d="m112.419 15.581a31.665 31.665 0 0 0 -44.781 0l-61.332 68.234 37.879 37.879 68.234-61.332a31.665 31.665 0 0 0 0-44.781z" fill="#ffde3e"/><path d="m110.11 41.08a8.95 8.95 0 0 1 -2.56 1.78 8.956 8.956 0 0 1 -.27 12.36c-.22.21-.44.42-.67.61-5.82-3.82-15.59-8.45-27.39-7.05 1.4-11.8-3.23-21.57-7.05-27.39.19-.23.4-.45.61-.67a8.956 8.956 0 0 1 12.36-.27 8.944 8.944 0 0 1 16.88 5.53 8.949 8.949 0 0 1 8.09 15.1z" fill="#64bc0f"/><path d="m99.62 37.66a9.245 9.245 0 0 1 -2.72 6.56l-5.2 5.2a37.548 37.548 0 0 0 -12.48-.64 37.548 37.548 0 0 0 -.64-12.48l5.2-5.2a9.28 9.28 0 0 1 15.84 6.56z" fill="#ef3829"/><g fill="#efcb37"><path d="m61.962 60.085a1.82 1.82 0 0 1 -.48-.066 1.753 1.753 0 0 1 -1.2-2.163l.949-3.336a1.75 1.75 0 1 1 3.367.957l-.948 3.336a1.751 1.751 0 0 1 -1.688 1.272z"/><path d="m44.486 79.592a1.665 1.665 0 0 1 -.232-.016l-3.9-.517a1.75 1.75 0 0 1 .46-3.469l3.9.517a1.75 1.75 0 0 1 -.229 3.485z"/><path d="m60.452 38.729a1.75 1.75 0 0 1 -.89-3.258l4.387-2.583a1.75 1.75 0 1 1 1.776 3.012l-4.387 2.583a1.741 1.741 0 0 1 -.886.246z"/><path d="m44.888 62.858a1.749 1.749 0 0 1 -1.709-1.38l-.96-4.453a1.75 1.75 0 1 1 3.422-.738l.96 4.452a1.749 1.749 0 0 1 -1.713 2.119z"/><path d="m20.2 83.493a1.75 1.75 0 0 1 -.582-3.4l3.833-1.353a1.75 1.75 0 1 1 1.164 3.3l-3.833 1.353a1.762 1.762 0 0 1 -.582.1z"/><path d="m88.972 67.252a1.75 1.75 0 0 1 -1.743-1.611l-.3-3.786a1.749 1.749 0 0 1 3.488-.277l.3 3.785a1.749 1.749 0 0 1 -1.606 1.883c-.046.004-.092.006-.139.006z"/><path d="m44.517 109.667a1.751 1.751 0 0 1 -1.627-1.1l-1.23-3.083a1.75 1.75 0 0 1 3.252-1.3l1.23 3.083a1.75 1.75 0 0 1 -1.625 2.4z"/><path d="m65 89.188a1.751 1.751 0 0 1 -.791-3.312l4.134-2.09a1.75 1.75 0 0 1 1.58 3.123l-4.138 2.091a1.747 1.747 0 0 1 -.785.188z"/><path d="m79.22 48.78q.1-.879.162-1.741a1.745 1.745 0 0 0 -1.9 1.531c-1.11 9.35-6.03 18.44-14.61 27.03-12.182 12.17-25.602 20.11-39.892 23.6a1.755 1.755 0 0 0 -.82.46l2.68 2.68c14.54-3.77 28.16-11.92 40.5-24.27 9.16-9.15 14.41-18.94 15.62-29.08a1.781 1.781 0 0 0 0-.372q-.86.06-1.74.162z"/></g></g></svg>