<svg height="512" viewBox="0 0 128 128" width="512" xmlns="http://www.w3.org/2000/svg"><g><path d="m7.151 61.04s-8.924-30.295 31.235-27.477 36.453-15.94 66.257-11.571c38.141 5.592 6.432 57.392-37.553 63.545-43.805 6.128-56.879-14.101-59.939-24.497z" fill="#f2e7cb"/><path d="m64 50.122c-11.746-6.452 2.471-8.9 2.471-8.9 18.195-2.443 20.9-11.164 32.279-10.175 20.089 1.753 9.229 22.953.88 26.153 0 0-7.733 2.76-19.595-.636a87.712 87.712 0 0 1 -16.035-6.442z" fill="#ef3829"/><path d="m33.54 43.2s-19.074-.978-15.809 13.552 25.466 24.3 55.5 17.282-7.346-11.4-16.488-15.976-4.436-13.197-23.203-14.858z" fill="#ef3829"/><path d="m121.691 38.052c0 17.531-24.409 43.261-54.6 47.485-43.805 6.128-56.879-14.1-59.939-24.5a26.478 26.478 0 0 1 -.843-6.82v19.862a26.5 26.5 0 0 0 .844 6.961c3.06 10.4 16.134 30.625 59.939 24.5 30.14-4.216 54.517-29.867 54.6-47.395 0 0 0-11.175 0-20.09z" fill="#ef983b"/><g fill="#d87c30"><path d="m52.717 100.63a47.446 47.446 0 0 1 -12.783-1.516 1.75 1.75 0 0 1 1.016-3.349c.1.03 10.4 3.044 24.772-.036a1.749 1.749 0 1 1 .732 3.421 65.585 65.585 0 0 1 -13.737 1.48z"/><path d="m73.941 96.924a1.75 1.75 0 0 1 -.451-3.441 60.393 60.393 0 0 0 6.839-2.248 1.75 1.75 0 0 1 1.442 3.19 62.944 62.944 0 0 1 -7.378 2.44 1.771 1.771 0 0 1 -.452.059z"/></g></g></svg>