<svg height="512" viewBox="0 0 128 128" width="512" xmlns="http://www.w3.org/2000/svg"><g><path d="m18.145 6.306h13.248v115.387h-13.248z" fill="#ef3829"/><path d="m31.394 6.306h64.382a14.079 14.079 0 0 1 14.079 14.079v87.23a14.079 14.079 0 0 1 -14.079 14.079h-64.382z" fill="#ffde3e"/><g fill="#ef3829"><g><path d="m43.024 58.44h3.149l2.987 5.325 2.988-5.325h3.152v11.154h-3.152v-5.975l-2.988 5.325-2.987-5.325v5.975h-3.149z"/><path d="m62.825 61.249v1.251h5.309v2.808h-5.309v1.478h5.828v2.809h-8.978v-11.155h8.978v2.809z"/><path d="m72.675 58.44h3.15l4.351 5.974v-5.974h3.149v11.154h-3.149l-4.351-5.975v5.975h-3.15z"/><path d="m87.607 64.642v-6.2h3.149v6.039a2.177 2.177 0 1 0 4.319 0v-6.041h3.15v6.2a5.312 5.312 0 0 1 -10.618 0z"/></g><path d="m97.04 52.488h-52.831a1.75 1.75 0 0 1 0-3.5h52.831a1.75 1.75 0 1 1 0 3.5z"/><path d="m97.04 79.012h-52.831a1.75 1.75 0 0 1 0-3.5h52.831a1.75 1.75 0 1 1 0 3.5z"/></g></g></svg>