<svg height="512" viewBox="0 0 128 128" width="512" xmlns="http://www.w3.org/2000/svg"><g><path d="m99.384 65.316a15 15 0 0 1 -8.113-2.381 15.079 15.079 0 0 1 -27.271 5.807 15.079 15.079 0 0 1 -27.271-5.807 14.748 14.748 0 0 1 -10.493 2.175l-.012.016 6.347 56.568h62.858l6.347-56.568v-.017a15.17 15.17 0 0 1 -2.392.207z" fill="#ef3829"/><path d="m99.384 35.136a13.2 13.2 0 0 0 -18.763-11.992 18.928 18.928 0 0 0 -33.242 0 13.2 13.2 0 0 0 -18.763 11.992 15.09 15.09 0 1 0 8.113 27.8 15.079 15.079 0 0 0 27.271 5.806 15.079 15.079 0 0 0 27.271-5.807 15.085 15.085 0 1 0 8.113-27.8z" fill="#8c3f07"/><circle cx="64" cy="13.05" fill="#ef3829" r="6.744"/><g fill="#f2e7cb"><path d="m76.44 75.3a15.067 15.067 0 0 1 -12.44-6.558 15.05 15.05 0 0 1 -16.206 6.073l5.26 46.87h21.9l5.26-46.87v-.006a15.047 15.047 0 0 1 -3.774.491z"/><path d="m77.586 37.8a1.75 1.75 0 0 1 -.864-3.273l4.79-2.714a1.75 1.75 0 0 1 1.725 3.045l-4.79 2.714a1.735 1.735 0 0 1 -.861.228z"/><path d="m53.783 38.331a1.852 1.852 0 0 1 -.275-.022l-6.73-1.063a1.75 1.75 0 1 1 .546-3.457l6.73 1.063a1.75 1.75 0 0 1 -.271 3.479z"/><path d="m65.837 57.219a1.748 1.748 0 0 1 -1.555-.947l-2.313-4.472a1.749 1.749 0 1 1 3.108-1.607l2.313 4.472a1.748 1.748 0 0 1 -.751 2.357 1.725 1.725 0 0 1 -.802.197z"/><path d="m98.231 54.04a1.742 1.742 0 0 1 -1.181-.46l-3.628-3.324a1.75 1.75 0 1 1 2.364-2.58l3.628 3.324a1.75 1.75 0 0 1 -1.183 3.04z"/><path d="m30.489 54.982a1.749 1.749 0 0 1 -1.338-2.876l3.268-3.885a1.75 1.75 0 0 1 2.681 2.253l-3.269 3.885a1.743 1.743 0 0 1 -1.342.623z"/></g></g></svg>