<svg height="512" viewBox="0 0 128 128" width="512" xmlns="http://www.w3.org/2000/svg"><g><path d="m64 40.811c-27.075 0-40.157 10.729-40.157 10.729l9.418 70.154h61.478l9.418-70.154s-13.082-10.729-40.157-10.729z" fill="#ef3829"/><path d="m101.327 72.624h-74.654l3.03 22.568h68.594z" fill="#f2e7cb"/><path d="m64 40.811c16.3 0 27.522 3.888 33.877 6.983h.005l-.782-24.594-9.149 6.13-8.551-23.024-13 17.908-4.685-1-12.515-16.908-11.019 21.644-6.43-4.738-1.168 24.359c6.436-3.056 17.507-6.76 33.417-6.76z" fill="#ffde3e"/><path d="m75.179 51.641a1.713 1.713 0 0 1 -.266-.021c-1.657-.253-3.371-.449-5.095-.582a1.75 1.75 0 0 1 .271-3.49c1.809.14 3.61.347 5.352.613a1.75 1.75 0 0 1 -.262 3.48z" fill="#d12626"/><path d="m95.958 59.356a1.739 1.739 0 0 1 -1.106-.394c-.068-.054-4.578-3.642-13.555-6.02a1.749 1.749 0 1 1 .9-3.382c9.8 2.6 14.672 6.527 14.875 6.693a1.75 1.75 0 0 1 -1.111 3.1z" fill="#d12626"/><path d="m88.922 30.78-10.38 6.96-1.58 3.95c-1.16-.17-2.36-.31-3.6-.43l2.14-5.33 2.93-7.35-22.84-4.89 2.54 11.04 4.77 6.09c-1.49.01-2.93.06-4.33.14l-9.66-12.34-7.87 15.12c-1.7.46-3.27.96-4.71 1.47l6.19-11.89-5.38-3.96a1.754 1.754 0 0 1 -.37-2.45l1.41 1.04.79-1.56h.01a1.576 1.576 0 0 1 .24.15l4.93 3.64 2.91-5.58a1.742 1.742 0 0 1 1.39-.94 1.771 1.771 0 0 1 1.54.67l3.06 3.91-1.48-6.44a1.739 1.739 0 0 1 .46-1.62 1.717 1.717 0 0 1 1.61-.48l6.5 1.39 1.57 2.12 4.68 1 1.12-1.54 13.68 2.92a1.75 1.75 0 0 1 1.26 2.36l-1.61 4.04 6.13-4.11a1.406 1.406 0 0 1 .37-.18l.61 1.63 1.45-.97a1.732 1.732 0 0 1 -.48 2.42z" fill="#efcb37"/></g></svg>