<svg height="512" viewBox="0 0 128 128" width="512" xmlns="http://www.w3.org/2000/svg"><g><path d="m64 40.814c-27.075 0-40.157 10.729-40.157 10.729l9.418 70.157h61.478l9.418-70.153s-13.082-10.733-40.157-10.733z" fill="#ef3829"/><path d="m98.297 95.194h-68.594l-3.03-22.568h74.654z" fill="#f2e7cb"/><path d="m78.4 14.124v27.776a95.664 95.664 0 0 0 -28.8 0v-27.776a7.81 7.81 0 0 1 7.81-7.824h13.18a7.81 7.81 0 0 1 7.81 7.824z" fill="#ffde3e"/><path d="m75.179 51.643a1.733 1.733 0 0 1 -.267-.02c-1.657-.254-3.371-.45-5.093-.582a1.75 1.75 0 0 1 .269-3.49c1.809.139 3.611.345 5.354.612a1.75 1.75 0 0 1 -.263 3.48z" fill="#d12626"/><path d="m95.957 59.359a1.747 1.747 0 0 1 -1.1-.393c-.049-.036-4.557-3.636-13.557-6.021a1.75 1.75 0 0 1 .9-3.383c9.8 2.6 14.673 6.528 14.875 6.694a1.75 1.75 0 0 1 -1.111 3.1z" fill="#d12626"/><g fill="#efcb37"><path d="m97.84 28.274v19.5a68.841 68.841 0 0 0 -19.44-5.874v-21.436h11.63a7.808 7.808 0 0 1 7.81 7.81z"/><path d="m49.6 20.464v21.436c-2.23.35-4.31.77-6.24 1.23a65.655 65.655 0 0 0 -13.2 4.64v-19.5a7.808 7.808 0 0 1 7.81-7.81z"/><path d="m69.952 21.509a1.752 1.752 0 0 1 -1.723-1.449c-.316-1.811-2.609-1.784-2.7-1.789a1.718 1.718 0 0 1 -1.782-1.716 1.75 1.75 0 0 1 1.717-1.783c1.87-.065 5.552.9 6.214 4.685a1.755 1.755 0 0 1 -1.726 2.052z"/><path d="m56.22 28.2a1.75 1.75 0 0 1 -1.161-3.06 5.36 5.36 0 0 1 7.3.017 1.75 1.75 0 0 1 -2.345 2.6 1.874 1.874 0 0 0 -2.637.005 1.743 1.743 0 0 1 -1.157.438z"/><path d="m67.076 36.526a1.746 1.746 0 0 1 -1.571-2.5 6.847 6.847 0 0 1 6.105-3.646 1.75 1.75 0 0 1 0 3.5 3.343 3.343 0 0 0 -2.968 1.7 1.771 1.771 0 0 1 -1.566.946z"/></g><path d="m87.969 37.743a1.751 1.751 0 0 1 -1.449-2.729c1.191-1.764.18-2.885.17-2.9a1.75 1.75 0 1 1 2.561-2.385 5.8 5.8 0 0 1 .17 7.239 1.748 1.748 0 0 1 -1.452.775z" fill="#ffde3e"/><path d="m37.883 36.136a1.787 1.787 0 0 1 -.354-.036 1.751 1.751 0 0 1 -1.362-2.067 5.484 5.484 0 0 1 5.913-4.122 1.75 1.75 0 0 1 1.676 1.821 1.769 1.769 0 0 1 -1.821 1.676c-2.03-.08-2.328 1.272-2.339 1.329a1.751 1.751 0 0 1 -1.713 1.399z" fill="#ffde3e"/></g></svg>