<svg height="512" viewBox="0 0 128 128" width="512" xmlns="http://www.w3.org/2000/svg"><g><path d="m64.145 18.238h-.433a14.117 14.117 0 0 0 -11.645 6.137l-43.222 63.084a14.116 14.116 0 0 0 .27 16.337l.153.208a14.114 14.114 0 0 0 11.375 5.758h86.867a14.117 14.117 0 0 0 11.573-6.033 14.116 14.116 0 0 0 .072-16.061l-43.365-63.293a14.117 14.117 0 0 0 -11.645-6.137z" fill="#f2e7cb"/><path d="m47.489 77.874h33.022v31.888h-33.022z" fill="#64bc0f"/><g fill="#e0d2b3"><path d="m64.389 41.271a1.742 1.742 0 0 1 -1.112-.4l-3.177-2.616a1.749 1.749 0 1 1 2.224-2.7l3.176 2.616a1.75 1.75 0 0 1 -1.113 3.1z"/><path d="m97.69 92.345a1.751 1.751 0 0 1 -1-3.188l3.179-2.209a1.751 1.751 0 1 1 2 2.875l-3.179 2.209a1.746 1.746 0 0 1 -1 .313z"/><path d="m28.319 90.136a1.714 1.714 0 0 1 -.6-.106 1.749 1.749 0 0 1 -1.047-2.242l1.5-4.113a1.75 1.75 0 0 1 3.289 1.2l-1.5 4.113a1.751 1.751 0 0 1 -1.642 1.148z"/><path d="m78.549 62.463a1.75 1.75 0 0 1 -.754-3.33l3.927-1.87a1.75 1.75 0 0 1 1.506 3.16l-3.928 1.87a1.757 1.757 0 0 1 -.751.17z"/><path d="m53.133 62.073a1.759 1.759 0 0 1 -.488-.073l-3.762-1.091a1.75 1.75 0 1 1 .974-3.361l3.762 1.091a1.75 1.75 0 0 1 -.486 3.43z"/></g></g></svg>