<svg height="512" viewBox="0 0 128 128" width="512" xmlns="http://www.w3.org/2000/svg"><g><path d="m64 40.811c-27.075 0-40.157 10.729-40.157 10.729l9.418 70.154h61.478l9.418-70.154s-13.082-10.729-40.157-10.729z" fill="#ef3829"/><path d="m52.849 41.457a96.565 96.565 0 0 1 22.3 0 19.352 19.352 0 1 0 -22.3 0zm11.151-27.641a11.842 11.842 0 1 1 -11.842 11.842 11.842 11.842 0 0 1 11.842-11.842z" fill="#efcb37"/><path d="m101.327 72.624h-74.654l3.03 22.568h68.594z" fill="#f2e7cb"/><path d="m75.179 51.641a1.713 1.713 0 0 1 -.266-.021c-1.657-.253-3.371-.449-5.095-.582a1.75 1.75 0 0 1 .271-3.49c1.809.14 3.611.347 5.352.613a1.75 1.75 0 0 1 -.262 3.48z" fill="#d12626"/><path d="m95.957 59.356a1.741 1.741 0 0 1 -1.1-.393c-.044-.036-4.554-3.636-13.555-6.021a1.749 1.749 0 1 1 .9-3.382c9.8 2.6 14.672 6.527 14.874 6.693a1.75 1.75 0 0 1 -1.111 3.1z" fill="#d12626"/><g fill="#ffde3e"><path d="m64 40.811c1.768 0 3.473.048 5.123.134a11.838 11.838 0 0 1 23.077 3.713c0 .247-.022.489-.037.732a57.124 57.124 0 0 1 7.159 3.137 19.352 19.352 0 1 0 -37.932-7.681q1.283-.033 2.61-.035z"/><path d="m35.834 45.39c-.015-.243-.037-.485-.037-.732a11.838 11.838 0 0 1 23.08-3.713c1.65-.086 3.355-.134 5.123-.134q1.329 0 2.61.035a19.352 19.352 0 1 0 -37.935 7.681 57.124 57.124 0 0 1 7.159-3.137z"/></g></g></svg>