<svg height="512" viewBox="0 0 128 128" width="512" xmlns="http://www.w3.org/2000/svg"><g><path d="m61.521 30.252s-.537-22.588 21.538-23.07c0 0 4.954 23.07-21.538 23.07z" fill="#64bc0f"/><path d="m9.744 49.38v66.182a7.117 7.117 0 0 0 7.216 7.013h94.08a7.117 7.117 0 0 0 7.216-7.013v-66.182z" fill="#ef983b"/><path d="m9.744 73.477h108.512v25h-108.512z" fill="#8c3f07"/><path d="m121.694 49.38h-43.394a5.846 5.846 0 0 0 -5.846 5.846v18.913a5.846 5.846 0 0 1 -5.846 5.846 5.846 5.846 0 0 1 -5.846-5.846v-.1a5.846 5.846 0 0 0 -5.846-5.846h-.9a5.846 5.846 0 0 0 -5.846 5.846v11.79a5.846 5.846 0 0 1 -5.846 5.846h-.9a5.846 5.846 0 0 1 -5.846-5.846v-30.603a5.846 5.846 0 0 0 -5.846-5.846h-23.426v-12.117a7.006 7.006 0 0 1 7.006-7.006h101.376a7.006 7.006 0 0 1 7.006 7.006z" fill="#f2e7cb"/><circle cx="60.984" cy="21.459" fill="#ef3829" r="8.798"/><path d="m55.684 13.959a1.65 1.65 0 0 0 .177.357 8.746 8.746 0 0 1 3.153-1.426c-.845-2.737-4.448-7.758-12.171-7.451a1.75 1.75 0 1 0 .133 3.5c6.917-.256 8.631 4.78 8.708 5.02z" fill="#8c3f07"/><g fill="#e0d2b3"><path d="m23.39 41.9a1.75 1.75 0 0 1 -1.19-3.032l1.459-1.354a1.75 1.75 0 0 1 2.381 2.565l-1.46 1.355a1.747 1.747 0 0 1 -1.19.466z"/><path d="m53.123 51.13a1.743 1.743 0 0 1 -1.237-.513l-1.98-1.98a1.75 1.75 0 0 1 2.474-2.475l1.98 1.98a1.751 1.751 0 0 1 -1.237 2.988z"/><path d="m78.063 42.113a1.751 1.751 0 0 1 -1.563-2.525l1.022-2.088a1.75 1.75 0 0 1 3.14 1.548l-1.028 2.084a1.75 1.75 0 0 1 -1.571.981z"/><path d="m106.664 42.11a1.726 1.726 0 0 1 -.382-.042l-1.875-.417a1.75 1.75 0 0 1 .759-3.417l1.876.417a1.75 1.75 0 0 1 -.378 3.459z"/></g></g></svg>