<svg height="512" viewBox="0 0 128 128" width="512" xmlns="http://www.w3.org/2000/svg"><g><path d="m117.779 71.182 1.605-1.605a7.887 7.887 0 0 0 0-11.154 7.888 7.888 0 0 1 -1.613-8.818 7.887 7.887 0 0 0 -3.949-10.431l-2.069-.933a7.887 7.887 0 0 1 -4.646-7.19v-2.27a7.888 7.888 0 0 0 -7.887-7.887 7.887 7.887 0 0 1 -7.378-5.094 7.885 7.885 0 0 0 -10.168-4.583l-2.123.8a7.883 7.883 0 0 1 -8.369-1.8l-1.605-1.601a7.887 7.887 0 0 0 -11.154 0 7.886 7.886 0 0 1 -8.818 1.614 7.887 7.887 0 0 0 -10.431 3.949l-.933 2.069a7.885 7.885 0 0 1 -7.19 4.646h-2.27a7.888 7.888 0 0 0 -7.887 7.887 7.887 7.887 0 0 1 -5.094 7.377 7.885 7.885 0 0 0 -4.583 10.168l.8 2.123a7.883 7.883 0 0 1 -1.8 8.369l-1.601 1.605a7.887 7.887 0 0 0 0 11.154 7.888 7.888 0 0 1 1.614 8.823 7.887 7.887 0 0 0 3.949 10.431l2.069.933a7.885 7.885 0 0 1 4.646 7.19v2.27a7.888 7.888 0 0 0 7.887 7.887 7.887 7.887 0 0 1 7.376 5.094 7.885 7.885 0 0 0 10.168 4.583l2.123-.8a7.883 7.883 0 0 1 8.369 1.8l1.605 1.605a7.887 7.887 0 0 0 11.154 0 7.888 7.888 0 0 1 8.824-1.623 7.887 7.887 0 0 0 10.431-3.949l.933-2.069a7.885 7.885 0 0 1 7.19-4.646h2.27a7.888 7.888 0 0 0 7.887-7.887 7.887 7.887 0 0 1 5.094-7.376 7.885 7.885 0 0 0 4.583-10.168l-.8-2.123a7.883 7.883 0 0 1 1.791-8.37z" fill="#ef983b"/><circle cx="64" cy="64" fill="#ffde3e" r="41.688"/><g fill="#efcb37"><path d="m96.028 63.423a1.749 1.749 0 0 1 -1.743-1.623 30.248 30.248 0 0 0 -9.544-19.975 1.749 1.749 0 1 1 2.391-2.554 33.726 33.726 0 0 1 10.643 22.277 1.748 1.748 0 0 1 -1.62 1.87c-.043.004-.085.005-.127.005z"/><path d="m78.442 37.06a1.738 1.738 0 0 1 -.787-.188 30.187 30.187 0 0 0 -6.884-2.478 1.75 1.75 0 0 1 .778-3.413 33.713 33.713 0 0 1 7.682 2.766 1.75 1.75 0 0 1 -.789 3.313z"/><g><path d="m64 56.934a1.751 1.751 0 0 1 -1.75-1.75v-9.448a1.75 1.75 0 1 1 3.5 0v9.448a1.751 1.751 0 0 1 -1.75 1.75z"/><path d="m64 84.014a1.751 1.751 0 0 1 -1.75-1.75v-9.448a1.75 1.75 0 0 1 3.5 0v9.448a1.751 1.751 0 0 1 -1.75 1.75z"/></g><g><path d="m82.264 65.75h-9.448a1.75 1.75 0 0 1 0-3.5h9.448a1.75 1.75 0 1 1 0 3.5z"/><path d="m55.184 65.75h-9.448a1.75 1.75 0 1 1 0-3.5h9.448a1.75 1.75 0 0 1 0 3.5z"/></g><path d="m70.233 59.517a1.751 1.751 0 0 1 -1.233-2.988l3.341-3.341a1.75 1.75 0 0 1 2.475 2.475l-3.345 3.337a1.744 1.744 0 0 1 -1.238.517z"/><path d="m54.426 75.324a1.75 1.75 0 0 1 -1.238-2.987l3.341-3.337a1.75 1.75 0 1 1 2.471 2.471l-3.34 3.341a1.744 1.744 0 0 1 -1.234.512z"/><path d="m73.574 75.324a1.746 1.746 0 0 1 -1.237-.512l-3.337-3.341a1.75 1.75 0 1 1 2.471-2.471l3.341 3.341a1.75 1.75 0 0 1 -1.238 2.987z"/><path d="m57.766 59.517a1.741 1.741 0 0 1 -1.237-.517l-3.341-3.341a1.75 1.75 0 0 1 2.475-2.475l3.337 3.345a1.751 1.751 0 0 1 -1.237 2.988z"/></g></g></svg>