<svg height="512" viewBox="0 0 128 128" width="512" xmlns="http://www.w3.org/2000/svg"><g><g fill="#f2e7cb"><path d="m73.663 18.627h9.521v14.371h-9.521z"/><path d="m73.663 95.003h9.521v14.371h-9.521z"/><path d="m102.51 18.627h9.521v14.371h-9.521z"/><path d="m102.51 95.003h9.521v14.371h-9.521z"/><path d="m15.969 18.627h9.521v14.371h-9.521z"/><path d="m15.969 95.003h9.521v14.371h-9.521z"/><path d="m44.816 18.627h9.521v14.371h-9.521z"/><path d="m44.816 95.003h9.521v14.371h-9.521z"/></g><rect fill="#8c3f07" height="62.005" rx="5.002" width="115.387" x="6.306" y="32.997"/><path d="m92.847 64.653a1.749 1.749 0 0 1 -1.747-1.753v-22.826a1.75 1.75 0 0 1 3.5 0v22.826a1.75 1.75 0 0 1 -1.753 1.753z" fill="#723307"/><path d="m92.847 89.676a1.749 1.749 0 0 1 -1.75-1.75v-16.017a1.75 1.75 0 0 1 3.5 0v16.017a1.75 1.75 0 0 1 -1.75 1.75z" fill="#723307"/><path d="m35.153 67.234a1.75 1.75 0 0 1 -1.75-1.75v-25.41a1.75 1.75 0 0 1 3.5 0v25.41a1.749 1.749 0 0 1 -1.75 1.75z" fill="#723307"/><path d="m35.153 89.676a1.75 1.75 0 0 1 -1.75-1.75v-13.126a1.75 1.75 0 0 1 3.5 0v13.13a1.749 1.749 0 0 1 -1.75 1.746z" fill="#723307"/><path d="m64 89.676a1.75 1.75 0 0 1 -1.75-1.75v-27.561a1.75 1.75 0 0 1 3.5 0v27.561a1.75 1.75 0 0 1 -1.75 1.75z" fill="#723307"/><path d="m64 53.448a1.75 1.75 0 0 1 -1.75-1.75v-11.624a1.75 1.75 0 0 1 3.5 0v11.626a1.75 1.75 0 0 1 -1.75 1.748z" fill="#723307"/><path d="m112.03 53.239a1.749 1.749 0 0 1 -1.75-1.75v-7.189a1.75 1.75 0 0 1 3.5 0v7.185a1.749 1.749 0 0 1 -1.75 1.754z" fill="#723307"/><path d="m15.969 86.7a1.75 1.75 0 0 1 -1.75-1.75v-7.181a1.75 1.75 0 0 1 3.5 0v7.185a1.749 1.749 0 0 1 -1.75 1.746z" fill="#723307"/></g></svg>