<svg height="512" viewBox="0 0 128 128" width="512" xmlns="http://www.w3.org/2000/svg"><g><path d="m121.694 6.306v105.852a9.535 9.535 0 0 1 -9.536 9.536h-105.852z" fill="#ef983b"/><path d="m110.32 17.68v92.64h-92.64z" fill="#f2e7cb"/><path d="m104.8 23.205a16.624 16.624 0 0 0 -12.713-4.747 16.684 16.684 0 0 1 -12.712-4.746c-6.818-6.818-18.433-6.257-25.943 1.253a20.265 20.265 0 0 1 -13.232 6 20.64 20.64 0 0 0 -19.235 19.235 20.265 20.265 0 0 1 -6 13.232c-7.51 7.51-8.071 19.125-1.253 25.943a16.684 16.684 0 0 1 4.746 12.712 16.624 16.624 0 0 0 4.742 12.713z" fill="#64bc0f"/><path d="m35.536 92.464a16.677 16.677 0 1 1 23.564-23.605z" fill="#ef3829"/><path d="m68.748 59.252a16.677 16.677 0 1 1 23.564-23.605z" fill="#ef3829"/><path d="m68.412 35.994h-.012a23.236 23.236 0 0 0 -32.41 32.406l.013.015a16.643 16.643 0 0 1 23.1.444l-12.023 12.041.01.011 21.658-21.659a16.649 16.649 0 0 1 -.336-23.258z" fill="#ffde3e"/><path d="m53.061 54.811a1.745 1.745 0 0 1 -1.238-.513l-3.023-3.023a1.75 1.75 0 1 1 2.475-2.475l3.025 3.024a1.75 1.75 0 0 1 -1.237 2.987z" fill="#efcb37"/><path d="m58.549 53.3a1.75 1.75 0 0 1 -1.75-1.75v-4.276a1.75 1.75 0 0 1 3.5 0v4.275a1.749 1.749 0 0 1 -1.75 1.751z" fill="#efcb37"/><path d="m51.549 60.268h-4.275a1.75 1.75 0 0 1 0-3.5h4.275a1.75 1.75 0 1 1 0 3.5z" fill="#efcb37"/><path d="m98.113 59.376a1.738 1.738 0 0 1 -.807-.2l-2.9-1.511a1.75 1.75 0 1 1 1.618-3.1l2.9 1.512a1.75 1.75 0 0 1 -.81 3.3z" fill="#e0d2b3"/><path d="m57.974 98.365a1.749 1.749 0 0 1 -1.45-2.727l2.248-3.338a1.75 1.75 0 0 1 2.9 1.955l-2.248 3.339a1.748 1.748 0 0 1 -1.45.771z" fill="#e0d2b3"/><path d="m93.763 99.348a1.769 1.769 0 0 1 -.479-.067l-3.458-.981a1.75 1.75 0 1 1 .956-3.367l3.458.982a1.75 1.75 0 0 1 -.477 3.434z" fill="#e0d2b3"/><path d="m80.725 80.755a1.75 1.75 0 0 1 -.553-3.411l4.712-1.571a1.75 1.75 0 0 1 1.107 3.321l-4.713 1.571a1.753 1.753 0 0 1 -.553.09z" fill="#e0d2b3"/><g fill="#efcb37"><path d="m56.794 66.944a1.731 1.731 0 0 0 .27-.925v-3.737a1.75 1.75 0 0 0 -3.5 0v2.918a16.587 16.587 0 0 1 3.23 1.744z"/><path d="m65.02 53.564h-2.706a1.75 1.75 0 0 0 0 3.5h3.5a1.737 1.737 0 0 0 .905-.259 16.616 16.616 0 0 1 -1.699-3.241z"/><path d="m65.1 41.1a16.975 16.975 0 0 0 -10.189-3.36 17.152 17.152 0 0 0 -13.758 27.421 16.561 16.561 0 0 1 3.44-.947 1.73 1.73 0 0 0 -.342-.743 13.513 13.513 0 0 1 -3.012-8.56 13.687 13.687 0 0 1 13.672-13.671 13.534 13.534 0 0 1 8.489 2.96 1.724 1.724 0 0 0 .71.332 16.532 16.532 0 0 1 .99-3.432z"/><path d="m62.473 64.948a1.774 1.774 0 0 0 .327.252l2.4-2.4a1.741 1.741 0 0 0 -.252-.327l-3.024-3.023a1.749 1.749 0 1 0 -2.474 2.474z"/></g></g></svg>