<svg height="512" viewBox="0 0 128 128" width="512" xmlns="http://www.w3.org/2000/svg"><g><path d="m116.61 38.19c-5.84 62.73-53.67 75.24-77.34 77.57a11.937 11.937 0 0 1 -8.49-2.42 3.1 3.1 0 0 0 .22-2.15l-2.64-10.2a3.107 3.107 0 0 0 -1.5-1.95l-.01-.05a11.946 11.946 0 0 1 9.21-7.62c17.37-2.93 51.83-14 56.79-55.79a11.9 11.9 0 0 1 5.85-8.88h.01a3.088 3.088 0 0 0 2.05 1.17l10.45 1.37a2.966 2.966 0 0 0 .42.03 3.061 3.061 0 0 0 1.7-.51 11.96 11.96 0 0 1 3.28 9.43z" fill="#ef3829"/><rect fill="#f2e7cb" height="6.268" rx="3.134" transform="matrix(.992 .13 -.13 .992 4.212 -13.617)" width="16.807" x="97.992" y="22.318"/><path d="m112.028 23.03 8.02-7.964s-8.8-.3-11.142-8.76c-4.443 7.575-13.023 5.594-13.023 5.594l5.7 9.761z" fill="#ef3829"/><rect fill="#f2e7cb" height="6.268" rx="3.134" transform="matrix(-.25 -.968 .968 -.25 -70.154 159.425)" width="16.807" x="18.243" y="103.74"/><path d="m22.294 102.557-10.386-4.457s3.018 8.273-3.956 13.609c8.687 1.288 10.057 9.987 10.057 9.987l6.923-8.934z" fill="#ef3829"/><g fill="#d12626"><path d="m54.39 103.67a1.75 1.75 0 0 1 -.412-3.451c.3-.074 30.639-7.732 42.276-33.319a1.75 1.75 0 1 1 3.185 1.449c-12.353 27.164-43.323 34.951-44.639 35.271a1.736 1.736 0 0 1 -.41.05z"/><path d="m101.859 60.6a1.753 1.753 0 0 1 -1.608-2.442 49.923 49.923 0 0 0 2.582-8.926 1.75 1.75 0 1 1 3.431.687 52.187 52.187 0 0 1 -2.8 9.624 1.749 1.749 0 0 1 -1.605 1.057z"/></g></g></svg>