<svg height="512" viewBox="0 0 128 128" width="512" xmlns="http://www.w3.org/2000/svg"><g><path d="m7.151 61.04s-8.924-30.295 31.235-27.477 36.453-15.94 66.257-11.571c38.141 5.592 6.432 57.392-37.553 63.545-43.805 6.128-56.879-14.101-59.939-24.497z" fill="#ef983b"/><path d="m121.691 38.052c0 17.531-24.409 43.261-54.6 47.485-43.805 6.128-56.879-14.1-59.939-24.5a26.478 26.478 0 0 1 -.843-6.82v19.862a26.5 26.5 0 0 0 .844 6.961c3.06 10.4 16.134 30.625 59.939 24.5 30.14-4.216 54.517-29.867 54.6-47.395 0 0 0-11.175 0-20.09z" fill="#8c3f07"/><path d="m52.717 100.63a47.407 47.407 0 0 1 -12.782-1.517 1.749 1.749 0 0 1 1.016-3.348c.1.031 10.4 3.044 24.77-.036a1.749 1.749 0 1 1 .734 3.421 65.6 65.6 0 0 1 -13.738 1.48z" fill="#723307"/><path d="m73.941 96.924a1.75 1.75 0 0 1 -.451-3.441 60.453 60.453 0 0 0 6.84-2.248 1.75 1.75 0 0 1 1.441 3.19 62.541 62.541 0 0 1 -7.378 2.439 1.729 1.729 0 0 1 -.452.06z" fill="#723307"/><g fill="#d87c30"><path d="m95.641 38.023a1.771 1.771 0 0 0 .591-.1l9.486-3.4a1.75 1.75 0 0 0 -1.183-3.3l-9.485 3.4a1.75 1.75 0 0 0 .591 3.4z"/><path d="m109.843 43.181a1.753 1.753 0 0 0 -2.238-1.057l-13.566 4.869-8.3-5.3 3.976-1.427a1.75 1.75 0 0 0 -1.183-3.3l-6.52 2.34-5.164-3.3a1.75 1.75 0 1 0 -1.884 2.949l2.883 1.845-11.691 4.2-6.656-4.255a1.75 1.75 0 1 0 -1.885 2.949l4.375 2.795-11.6 4.164-13.722-8.769a1.75 1.75 0 1 0 -1.885 2.949l11.446 7.314-13.588 4.877-4.758-3.041a1.75 1.75 0 0 0 -1.883 2.95l2.481 1.585-7.757 2.782a1.75 1.75 0 0 0 .591 3.4 1.771 1.771 0 0 0 .591-.1l10.3-3.7 8.3 5.3-9.32 3.35a1.75 1.75 0 0 0 .592 3.4 1.771 1.771 0 0 0 .591-.1l11.867-4.259 12.654 8.081a1.75 1.75 0 1 0 1.885-2.949l-10.375-6.631 13.588-4.877 8.752 5.592-4.475 1.606a1.751 1.751 0 0 0 .592 3.4 1.773 1.773 0 0 0 .591-.1l7.019-2.519 3.074 1.964a1.75 1.75 0 0 0 1.883-2.958l-.8-.508 4.355-1.563a1.75 1.75 0 0 0 -1.179-3.291l-6.9 2.476-8.751-5.592 11.6-4.164 13.11 8.377a1.75 1.75 0 1 0 1.884-2.95l-10.83-6.921 11.691-4.2 8.577 5.481a1.75 1.75 0 0 0 1.885-2.95l-6.3-4.025 11.022-3.955a1.75 1.75 0 0 0 1.055-2.234zm-65.172 21.529-8.3-5.3 13.588-4.876 8.3 5.305zm17.75-6.37-8.3-5.305 11.6-4.164 8.3 5.305zm15.765-5.658-8.3-5.3 11.691-4.2 8.3 5.306z"/><path d="m21.314 53.613a1.749 1.749 0 0 0 .943-3.224l-3.224-2.06a1.75 1.75 0 1 0 -1.884 2.949l3.224 2.06a1.746 1.746 0 0 0 .941.275z"/></g></g></svg>