<svg height="512" viewBox="0 0 128 128" width="512" xmlns="http://www.w3.org/2000/svg"><g><path d="m117.418 34.235a12.936 12.936 0 0 0 -15.542-20.393 12.913 12.913 0 0 0 -20.9-3.745 13.029 13.029 0 0 0 -1.544 1.875c-.055-.056-.1-.118-.157-.173a12.923 12.923 0 0 0 -21.271 4.639 12.933 12.933 0 0 0 -17.589 9.722 12.909 12.909 0 0 0 -14.739 14.74 12.933 12.933 0 0 0 -9.723 17.59 12.923 12.923 0 0 0 -4.639 21.271c.013.013.027.023.039.036-.262.223-.523.449-.771.7a12.919 12.919 0 0 0 3.474 20.772 12.936 12.936 0 0 0 19.7 16.637z" fill="#64bc0f"/><path d="m36.521 108.731-6.871.085a6.756 6.756 0 0 1 -6.78-5.866l-.262-1.976a6.755 6.755 0 0 0 -1.92-3.888l-2.034-2.034a6.755 6.755 0 0 1 -.6-8.861l1.571-2.069a6.753 6.753 0 0 0 .288-7.759l-.412-.635a6.755 6.755 0 0 1 1.921-9.295l1.746-1.164a6.755 6.755 0 0 0 2.727-7.548 6.754 6.754 0 0 1 3.813-8.137l1.814-.777a6.755 6.755 0 0 0 4.058-5.518l.112-1.087a6.755 6.755 0 0 1 6.028-6.029l1.088-.111a6.756 6.756 0 0 0 5.514-4.062l.778-1.814a6.755 6.755 0 0 1 8.136-3.813 6.754 6.754 0 0 0 7.549-2.727l1.164-1.746a6.755 6.755 0 0 1 9.3-1.921l.634.412a6.756 6.756 0 0 0 7.759-.288l2.07-1.572a6.755 6.755 0 0 1 8.861.6l2.027 2.042a6.758 6.758 0 0 0 3.888 1.92l1.975.262a6.753 6.753 0 0 1 5.866 6.779l-.085 6.871z" fill="#ef3829"/><path d="m119.461 44.032a53.966 53.966 0 0 0 -75.913 75.914z" fill="#ffde3e"/><g fill="#efcb37"><path d="m53.394 68.3a1.769 1.769 0 0 1 -.345-.034l-3.458-.692a1.75 1.75 0 0 1 .687-3.431l3.457.691a1.75 1.75 0 0 1 -.341 3.466z"/><path d="m90.858 51.309a1.752 1.752 0 0 1 -1.65-2.334l1.352-3.819a1.75 1.75 0 0 1 3.3 1.168l-1.351 3.819a1.751 1.751 0 0 1 -1.651 1.166z"/><path d="m71.543 77.146a1.628 1.628 0 0 1 -.219-.013 1.749 1.749 0 0 1 -1.52-1.952l.479-3.85a1.75 1.75 0 0 1 3.473.432l-.479 3.849a1.75 1.75 0 0 1 -1.734 1.534z"/><path d="m44.437 93.7a1.75 1.75 0 0 1 -.529-3.418l4.092-1.298a1.75 1.75 0 1 1 1.06 3.336l-4.093 1.3a1.754 1.754 0 0 1 -.53.08z"/><path d="m67.891 54.845a1.751 1.751 0 0 1 -1.557-2.545l1.1-2.144a1.75 1.75 0 0 1 3.116 1.594l-1.1 2.144a1.749 1.749 0 0 1 -1.559.951z"/></g></g></svg>