<svg height="512" viewBox="0 0 128 128" width="512" xmlns="http://www.w3.org/2000/svg"><g><path d="m104.932 22.15.001-15.844-5.9 5.839-5.838-5.839-5.839 5.839-5.838-5.839-5.839 5.839-5.839-5.839-5.838 5.839-5.839-5.839-5.838 5.839-5.839-5.839-5.838 5.839-5.839-5.839-5.838 5.839-5.9-5.839v15.845l-16.757 24.995h-.006v74.548l115.384-.004v-74.54z" fill="#ef983b"/><rect fill="#ef3829" height="24.076" rx="12.038" width="51.763" x="21.358" y="72.382"/><g fill="#d87c30"><path d="m120.518 45.4h-13.84v-20.64l-1.75-2.61v-1.75h-81.86v1.75l-1.168 1.75h79.75l-14.412 21.5h-79.75l-1.17 1.75h-.01v1.75h80.11v72.79h3.5v-72.79h13.26v72.79h3.5v-72.79h15.01v-1.75zm-17.34 0h-11.73l11.73-17.5z"/><path d="m38.278 113.391h-20.134a1.75 1.75 0 1 1 0-3.5h20.134a1.75 1.75 0 1 1 0 3.5z"/><path d="m49.958 113.391h-4.294a1.75 1.75 0 0 1 0-3.5h4.294a1.75 1.75 0 0 1 0 3.5z"/></g></g></svg>