<svg height="512" viewBox="0 0 128 128" width="512" xmlns="http://www.w3.org/2000/svg"><g><path d="m6.306 6.306h115.387v115.387h-115.387z" fill="#ef983b"/><g fill="#ffde3e"><path d="m18.204 52.103h23.795v23.795h-23.795z"/><path d="m52.103 86.001h23.795v23.795h-23.795z"/><path d="m86.001 86.001h23.795v23.795h-23.795z"/><path d="m18.204 86.001h23.795v23.795h-23.795z"/><path d="m18.204 18.204h23.795v23.795h-23.795z"/><path d="m68.11 41.167a4.221 4.221 0 0 0 -4.222-4.221h-.374a4.221 4.221 0 0 1 -4.221-4.221v-14.525h-7.193v23.8h16.01z"/><path d="m109.788 31.472a4.221 4.221 0 0 1 -4.222 4.221h-2.244a4.221 4.221 0 0 0 -4.222 4.221v2.086h10.7z"/><path d="m73.346 58.135h-1.015a4.221 4.221 0 0 1 -4.221-4.221v-1.814h-16.01v23.8h23.8v-18.627l-.011-.007a4.19 4.19 0 0 1 -2.543.869z"/><path d="m99.1 52.1v22.85a5.636 5.636 0 0 1 -.085.944h10.785v-23.794z"/></g><path d="m59.293 6.306v26.419a4.221 4.221 0 0 0 4.221 4.221h.374a4.221 4.221 0 0 1 4.222 4.221v12.747a4.221 4.221 0 0 0 4.221 4.221h1.015a4.221 4.221 0 0 0 4.221-4.221v-20.679a4.221 4.221 0 0 1 4.222-4.221 4.221 4.221 0 0 1 4.221 4.221v41.719a5.642 5.642 0 0 0 5.642 5.646h1.806a5.642 5.642 0 0 0 5.642-5.646v-35.04a4.221 4.221 0 0 1 4.221-4.221h2.244a4.221 4.221 0 0 0 4.222-4.221v-25.166z" fill="#8c3f07"/></g></svg>