<?xml version="1.0" encoding="iso-8859-1"?>
<!-- Generator: Adobe Illustrator 19.0.0, SVG Export Plug-In . SVG Version: 6.00 Build 0)  -->
<svg version="1.1" id="Capa_1" xmlns="http://www.w3.org/2000/svg" xmlns:xlink="http://www.w3.org/1999/xlink" x="0px" y="0px"
	 viewBox="0 0 328.4 328.4" style="enable-background:new 0 0 328.4 328.4;" xml:space="preserve">
<path style="fill:#8C3292;" d="M228.6,107.2c33.6,21.2,55.6,58.4,55.6,101.2c0,66.4-53.6,120-120,120s-120-53.6-120-120
	c0-42.4,22-80,55.6-101.2c-0.8,2.8-1.6,6-1.6,8.8c0,15.2,12.4,28,28,28c4,0,7.6-0.8,11.2-2.4c2.8,12.4,14,21.6,27.2,21.6
	c13.2,0,24.4-9.2,27.2-21.6c3.6,1.6,7.2,2.4,11.2,2.4c15.2,0,28-12.4,28-28C230.2,112.8,229.8,110,228.6,107.2 M164.2,88.4
	L164.2,88.4L164.2,88.4L164.2,88.4z"/>
<path style="fill:#278943;" d="M155.8,26.4c0-7.2,2.8-14,7.6-18.8C168.2,2.8,175,0,182.2,0c4.4,0,8.4,3.6,8.4,8.4
	c0,4.4-3.6,8.4-8.4,8.4c-2.8,0-5.2,1.2-7.2,2.8c-2,2-2.8,4.4-2.8,7.2v62c0,4.4-3.6,8.4-8.4,8.4s-8.4-3.6-8.4-8.4V26.4H155.8z"/>
<g>
	<path style="fill:#7EB642;" d="M70.6,11.2C160.2,148,228.2-32,70.6,11.2"/>
	<path style="fill:#581F67;" d="M202.6,88.4c15.2,0,28,12.4,28,28c0,15.2-12.4,28-28,28c-4,0-7.6-0.8-11.2-2.4
		c-2.8,12.4-14,21.6-27.2,21.6s-24.4-9.2-27.2-21.6c-3.6,1.6-7.2,2.4-11.2,2.4c-15.2,0-28-12.4-28-28c0-15.2,12.4-28,28-28
		C155,88.4,173.4,88.4,202.6,88.4"/>
</g>
<g>
</g>
<g>
</g>
<g>
</g>
<g>
</g>
<g>
</g>
<g>
</g>
<g>
</g>
<g>
</g>
<g>
</g>
<g>
</g>
<g>
</g>
<g>
</g>
<g>
</g>
<g>
</g>
<g>
</g>
</svg>
