<?xml version="1.0" encoding="iso-8859-1"?>
<!-- Generator: Adobe Illustrator 19.0.0, SVG Export Plug-In . SVG Version: 6.00 Build 0)  -->
<svg version="1.1" id="Capa_1" xmlns="http://www.w3.org/2000/svg" xmlns:xlink="http://www.w3.org/1999/xlink" x="0px" y="0px"
	 viewBox="0 0 317.638 317.638" style="enable-background:new 0 0 317.638 317.638;" xml:space="preserve">
<path style="fill:#D73426;" d="M37.619,256.8c16.4,34.8,54.8,62,121.2,60.8l0,0c66.4,1.2,104.8-26,121.2-60.8
	c6.4-14,9.6-29.2,9.6-44.4c0-15.2-2.8-30.8-8.4-44.8c-14-35.2-44.4-63.2-85.2-63.2c-6,0-12,0.8-17.6,2c-6,1.2-11.6,3.2-16.8,5.6
	l-2.8,1.2l-2.8-1.2c-5.2-2.4-10.8-4.4-16.8-5.6c-5.6-1.2-11.6-2-17.6-2c-40.8,0-71.6,27.6-85.2,63.2c-5.6,14-8.4,29.6-8.4,44.8
	C28.019,227.6,31.219,242.8,37.619,256.8"/>
<path style="fill:#278943;" d="M150.419,28.8c0-8,3.2-15.2,8.4-20.4c5.2-5.2,12.4-8.4,20.4-8.4c4.4,0,8.4,3.6,8.4,8.4
	c0,4.4-3.6,8.4-8.4,8.4c-3.6,0-6.4,1.2-8.8,3.6s-3.6,5.2-3.6,8.8v83.6c0,4.4-3.6,8.4-8.4,8.4c-4.4,0-8.4-3.6-8.4-8.4v-84H150.419z"
	/>
<path style="fill:#7EB642;" d="M53.619,20.8C154.019,174.8,230.819-27.6,53.619,20.8"/>
<g>
</g>
<g>
</g>
<g>
</g>
<g>
</g>
<g>
</g>
<g>
</g>
<g>
</g>
<g>
</g>
<g>
</g>
<g>
</g>
<g>
</g>
<g>
</g>
<g>
</g>
<g>
</g>
<g>
</g>
</svg>
