<?xml version="1.0" encoding="iso-8859-1"?>
<!-- Generator: Adobe Illustrator 19.0.0, SVG Export Plug-In . SVG Version: 6.00 Build 0)  -->
<svg version="1.1" id="Capa_1" xmlns="http://www.w3.org/2000/svg" xmlns:xlink="http://www.w3.org/1999/xlink" x="0px" y="0px"
	 viewBox="0 0 355.2 355.2" style="enable-background:new 0 0 355.2 355.2;" xml:space="preserve">
<g>
	<path style="fill:#7EB642;" d="M177.6,88.8H0c0,98,79.6,177.6,177.6,177.6s177.6-79.6,177.6-177.6L177.6,88.8L177.6,88.8z"/>
	<path style="fill:#D73426;" d="M177.6,88.8H37.2c0,77.6,62.8,140.4,140.4,140.4S318,166.4,318,88.8L177.6,88.8L177.6,88.8z"/>
	<g>
		<path style="fill:#95221D;" d="M156.8,171.2c6.8,0,12.4,5.6,12.4,12.4s-5.6,12.4-12.4,12.4c-6.8,0-12.4-5.6-12.4-12.4
			C144.4,176.8,149.6,171.2,156.8,171.2"/>
		<path style="fill:#95221D;" d="M94.8,119.6c6.8,0,12.4,5.6,12.4,12.4c0,6.8-5.6,12.4-12.4,12.4c-6.8,0-12.4-5.6-12.4-12.4
			C82.4,124.8,88,119.6,94.8,119.6"/>
		<path style="fill:#95221D;" d="M184,98c6.8,0,12.4,5.6,12.4,12.4c0,6.8-5.6,12.4-12.4,12.4c-6.8,0-12.4-5.6-12.4-12.4
			C171.6,103.2,176.8,98,184,98"/>
		<path style="fill:#95221D;" d="M228.8,160.4c6.8,0,12.4,5.6,12.4,12.4c0,6.8-5.6,12.4-12.4,12.4s-12.4-5.6-12.4-12.4
			C216.4,165.6,222,160.4,228.8,160.4"/>
		<path style="fill:#95221D;" d="M262.4,102.8c6.8,0,12.4,5.6,12.4,12.4c0,6.8-5.6,12.4-12.4,12.4S250,122,250,115.2
			S255.6,102.8,262.4,102.8"/>
	</g>
</g>
<g>
</g>
<g>
</g>
<g>
</g>
<g>
</g>
<g>
</g>
<g>
</g>
<g>
</g>
<g>
</g>
<g>
</g>
<g>
</g>
<g>
</g>
<g>
</g>
<g>
</g>
<g>
</g>
<g>
</g>
</svg>
