<?xml version="1.0" encoding="iso-8859-1"?>
<!-- Generator: Adobe Illustrator 19.0.0, SVG Export Plug-In . SVG Version: 6.00 Build 0)  -->
<svg version="1.1" id="Capa_1" xmlns="http://www.w3.org/2000/svg" xmlns:xlink="http://www.w3.org/1999/xlink" x="0px" y="0px"
	 viewBox="0 0 337.2 337.2" style="enable-background:new 0 0 337.2 337.2;" xml:space="preserve">
<g>
	<path style="fill:#7EB642;" d="M168.6,337.2c-0.4,0-1.2,0-1.6,0c-47.2-0.8-96-32.4-108.8-73.2c-16-51.6,48-132,48-201.6
		c0-34.4,28-62.4,62.4-62.4S231,28,231,62.4c0,69.6,64,150,48,201.6c-12.8,40.8-61.6,72.4-108.8,73.2
		C169.8,337.2,169,337.2,168.6,337.2"/>
	<path style="fill:#4E602B;" d="M168.6,148c35.2,0,64,32.4,64,72c0,40-28.8,72-64,72s-64-32.4-64-72S133.4,148,168.6,148"/>
</g>
<g>
</g>
<g>
</g>
<g>
</g>
<g>
</g>
<g>
</g>
<g>
</g>
<g>
</g>
<g>
</g>
<g>
</g>
<g>
</g>
<g>
</g>
<g>
</g>
<g>
</g>
<g>
</g>
<g>
</g>
</svg>
