<?xml version="1.0" encoding="iso-8859-1"?>
<!-- Generator: Adobe Illustrator 19.0.0, SVG Export Plug-In . SVG Version: 6.00 Build 0)  -->
<svg version="1.1" id="Capa_1" xmlns="http://www.w3.org/2000/svg" xmlns:xlink="http://www.w3.org/1999/xlink" x="0px" y="0px"
	 viewBox="0 0 355.2 355.2" style="enable-background:new 0 0 355.2 355.2;" xml:space="preserve">
<path style="fill:#7EB642;" d="M106.731,225.6c-75.2,7.2-80.4,129.6,49.6,129.6c79.2,0,143.6-63.6,145.2-142.4c0-0.8,0-2,0-2.8
	c0-53.6-43.6-97.2-97.2-97.2C135.931,112.8,96.731,166.4,106.731,225.6"/>
<path style="fill:#278943;" d="M195.931,28.8c0-8,3.2-15.2,8.4-20.4l0,0c5.2-5.2,12.4-8.4,20.4-8.4c4.4,0,8.4,3.6,8.4,8.4
	c0,4.4-3.6,8.4-8.4,8.4c-3.6,0-6.4,1.2-8.8,3.6s-3.6,5.2-3.6,8.8v83.6c0,4.4-3.6,8.4-8.4,8.4s-8.4-3.6-8.4-8.4v-84H195.931z"/>
<path style="fill:#7EB642;" d="M99.131,34.8C199.531,188.4,275.931-14,99.131,34.8"/>
<g>
</g>
<g>
</g>
<g>
</g>
<g>
</g>
<g>
</g>
<g>
</g>
<g>
</g>
<g>
</g>
<g>
</g>
<g>
</g>
<g>
</g>
<g>
</g>
<g>
</g>
<g>
</g>
<g>
</g>
</svg>
