<?xml version="1.0" encoding="iso-8859-1"?>
<!-- Generator: Adobe Illustrator 19.0.0, SVG Export Plug-In . SVG Version: 6.00 Build 0)  -->
<svg version="1.1" id="Capa_1" xmlns="http://www.w3.org/2000/svg" xmlns:xlink="http://www.w3.org/1999/xlink" x="0px" y="0px"
	 viewBox="0 0 321.175 321.175" style="enable-background:new 0 0 321.175 321.175;" xml:space="preserve">
<g>
	<path style="fill:#FFCC03;" d="M275.319,137.478c-16,24-68.4,83.2-188.8,84.4c-70,0.8-58.8,23.2-6.8,40.4
		c94.8,31.2,204.4,1.2,238.4-96.8c4.8-14,3.6-26.8-1.2-35.6c0.8-1.6,0.8-3.6,0.8-5.6v-60.4c0-9.2-7.6-16.8-16.8-16.8
		c-9.2,0-16.8,7.6-16.8,16.8v60.4c0,0.8,0,1.6,0,2.4C281.319,129.078,278.119,132.678,275.319,137.478"/>
	<path style="fill:#E5B821;" d="M255.319,129.078c-21.6,18.8-87.6,63.2-204,33.2c-68-17.2-62.8,7.2-17.2,37.2
		c14,9.2,28.8,16.8,44.4,22.8c2.4,0,5.2,0,8,0c120-1.6,172.4-61.2,188.8-84.8c3.2-4.4,6.4-8,9.2-10.8c0-0.8,0-1.6,0-2.4v-60.4
		c0-6.4,3.6-12,9.2-14.8c-4.8,2-8.8,6-10.4,11.2l-15.6,58.4c0,0.8-0.4,1.6-0.4,2C263.719,122.678,259.719,125.478,255.319,129.078"
		/>
	<path style="fill:#D0A72C;" d="M276.519,85.878c-24.8,19.2-91.2,56.8-201.6,25.6c-67.6-19.2-62.8,5.6-18,36.8
		c12.8,8.8,26.4,16.4,40.4,22.4c88.4,9.6,139.6-25.6,158.4-41.6c4-3.6,8-6.4,12-8c0-0.8,0.4-1.6,0.4-2L276.519,85.878z"/>
</g>
<g>
</g>
<g>
</g>
<g>
</g>
<g>
</g>
<g>
</g>
<g>
</g>
<g>
</g>
<g>
</g>
<g>
</g>
<g>
</g>
<g>
</g>
<g>
</g>
<g>
</g>
<g>
</g>
<g>
</g>
</svg>
