<?xml version="1.0" encoding="iso-8859-1"?>
<!-- Generator: Adobe Illustrator 19.0.0, SVG Export Plug-In . SVG Version: 6.00 Build 0)  -->
<svg version="1.1" id="Capa_1" xmlns="http://www.w3.org/2000/svg" xmlns:xlink="http://www.w3.org/1999/xlink" x="0px" y="0px"
	 viewBox="0 0 371.2 371.2" style="enable-background:new 0 0 371.2 371.2;" xml:space="preserve">
<path style="fill:#278943;" d="M177.2,28.4c0-7.6,3.2-14.8,8.4-20l0,0l0,0l0,0c5.2-5.2,12.4-8.4,20-8.4c4.4,0,8.4,3.6,8.4,8.4
	s-3.6,8.4-8.4,8.4c-3.2,0-6.4,1.2-8.4,3.6l0,0c-2,2-3.6,5.2-3.6,8.4v67.6c0,4.4-3.6,8.4-8.4,8.4s-8.4-3.6-8.4-8.4v-68H177.2z"/>
<g>
	<path style="fill:#7EB642;" d="M96,23.6C181.2,153.6,246-18,96,23.6"/>
	<path style="fill:#8C3292;" d="M185.6,96c16.4,0,29.6,13.2,29.6,29.6s-13.2,29.6-29.6,29.6S156,142,156,125.6S169.2,96,185.6,96"/>
</g>
<path style="fill:#6A277A;" d="M200.8,110.4c-4-4-9.2-6.4-15.2-6.4c-5.6,0-10.8,2.4-14.8,6l-0.4,0.4c-4,4-6.4,9.2-6.4,15.2
	c0,6,2.4,11.2,6.4,15.2s9.2,6.4,15.2,6.4s11.2-2.4,15.2-6.4l0,0c4-4,6.4-9.2,6.4-15.2C207.2,119.6,204.8,114.4,200.8,110.4
	 M185.6,87.6c10.4,0,20,4.4,26.8,11.2l0,0c6.8,6.8,11.2,16.4,11.2,26.8s-4.4,20-11.2,26.8l0,0l0,0c-6.8,6.8-16.4,11.2-26.8,11.2
	c-10.4,0-20-4.4-26.8-11.2c-6.8-6.8-11.2-16.4-11.2-26.8s4.4-20,11.2-26.8l0.4-0.4C166,92,175.2,87.6,185.6,87.6z"/>
<path style="fill:#8C3292;" d="M185.6,303.6c16.4,0,29.6,13.2,29.6,29.6s-13.2,29.6-29.6,29.6S156,349.6,156,333.2
	S169.2,303.6,185.6,303.6"/>
<path style="fill:#6A277A;" d="M200.8,318c-4-4-9.2-6.4-15.2-6.4c-5.6,0-10.8,2.4-14.8,6l-0.4,0.4c-4,4-6.4,9.2-6.4,15.2
	s2.4,11.2,6.4,15.2s9.2,6.4,15.2,6.4s11.2-2.4,15.2-6.4l0,0c4-4,6.4-9.2,6.4-15.2S204.8,322,200.8,318 M185.6,295.2
	c10.4,0,20,4.4,26.8,11.2l0,0c6.8,6.8,11.2,16.4,11.2,26.8s-4.4,20-11.2,26.8l0,0l0,0c-6.8,6.8-16.4,11.2-26.8,11.2
	c-10.4,0-20-4.4-26.8-11.2c-6.8-6.8-11.2-16.4-11.2-26.8s4.4-20,11.2-26.8l0.4-0.4C166,299.2,175.2,295.2,185.6,295.2z"/>
<path style="fill:#8C3292;" d="M156,251.6c16.4,0,29.6,13.2,29.6,29.6s-13.2,29.6-29.6,29.6s-29.6-13.2-29.6-29.6
	S139.6,251.6,156,251.6"/>
<path style="fill:#6A277A;" d="M171.2,266c-4-4-9.2-6.4-15.2-6.4c-5.6,0-10.8,2.4-14.8,6l-0.4,0.4c-4,4-6.4,9.2-6.4,15.2
	s2.4,11.2,6.4,15.2s9.2,6.4,15.2,6.4s11.2-2.4,15.2-6.4l0,0c4-4,6.4-9.2,6.4-15.2S174.8,270,171.2,266 M156,243.6
	c10.4,0,20,4.4,26.8,11.2l0,0c6.8,6.8,11.2,16.4,11.2,26.8s-4.4,20-11.2,26.8l0,0l0,0c-6.8,6.8-16.4,11.2-26.8,11.2
	c-10.4,0-20-4.4-26.8-11.2c-6.8-6.8-11.2-16.4-11.2-26.8s4.4-20,11.2-26.8l0.4-0.4C136.4,247.6,145.6,243.6,156,243.6z"/>
<path style="fill:#8C3292;" d="M215.2,251.6c-16.4,0-29.6,13.2-29.6,29.6s13.2,29.6,29.6,29.6s29.6-13.2,29.6-29.6
	S231.6,251.6,215.2,251.6"/>
<path style="fill:#6A277A;" d="M188.4,254.4c6.8-6.8,16.4-11.2,26.8-11.2s20,4.4,26.8,11.2l0,0c6.8,6.8,11.2,16.4,11.2,26.8
	s-4,19.6-10.8,26.4L242,308c-6.8,6.8-16.4,11.2-26.8,11.2s-20-4.4-26.8-11.2c-6.8-6.8-11.2-16.4-11.2-26.8
	C177.2,270.8,181.6,261.6,188.4,254.4L188.4,254.4L188.4,254.4z M215.2,260c-6,0-11.2,2.4-15.2,6.4l0,0c-4,4-6.4,9.2-6.4,15.2
	s2.4,11.2,6.4,15.2s9.2,6.4,15.2,6.4s11.2-2.4,15.2-6.4l0.4-0.4c3.6-4,6-9.2,6-14.8c0-6-2.4-11.2-6.4-15.2
	C226.8,262.4,221.2,260,215.2,260z"/>
<path style="fill:#8C3292;" d="M185.6,199.6c16.4,0,29.6,13.2,29.6,29.6s-13.2,29.6-29.6,29.6S156,245.6,156,229.2
	C156,213.2,169.2,199.6,185.6,199.6"/>
<path style="fill:#6A277A;" d="M200.8,214.4c-4-4-9.2-6.4-15.2-6.4c-5.6,0-10.8,2.4-14.8,6l-0.4,0.4c-4,4-6.4,9.2-6.4,15.2
	s2.4,11.2,6.4,15.2s9.2,6.4,15.2,6.4s11.2-2.4,15.2-6.4l0,0c4-4,6.4-9.2,6.4-15.2S204.8,218,200.8,214.4 M185.6,191.6
	c10.4,0,20,4.4,26.8,11.2l0,0c6.8,6.8,11.2,16.4,11.2,26.8s-4.4,20-11.2,26.8l0,0l0,0c-6.8,6.8-16.4,11.2-26.8,11.2
	c-10.4,0-20-4.4-26.8-11.2c-6.8-6.8-11.2-16.4-11.2-26.8s4.4-20,11.2-26.8l0.4-0.4C166,195.6,175.2,191.6,185.6,191.6z"/>
<path style="fill:#8C3292;" d="M156,148c16.4,0,29.6,13.2,29.6,29.6s-13.2,29.6-29.6,29.6s-29.6-13.2-29.6-29.6S139.6,148,156,148"
	/>
<path style="fill:#6A277A;" d="M171.2,162.4c-4-4-9.2-6.4-15.2-6.4c-5.6,0-10.8,2.4-14.8,6l-0.4,0.4c-4,4-6.4,9.2-6.4,15.2
	s2.4,11.2,6.4,15.2s9.2,6.4,15.2,6.4s11.2-2.4,15.2-6.4l0,0c4-4,6.4-9.2,6.4-15.2C177.2,171.6,174.8,166.4,171.2,162.4 M156,139.6
	c10.4,0,20,4.4,26.8,11.2l0,0c6.8,6.8,11.2,16.4,11.2,26.8c0,10.4-4.4,20-11.2,26.8l0,0l0,0c-6.8,6.8-16.4,11.2-26.8,11.2
	c-10.4,0-20-4.4-26.8-11.2c-6.8-6.8-11.2-16.4-11.2-26.8c0-10.4,4.4-20,11.2-26.8l0.4-0.4C136.4,143.6,145.6,139.6,156,139.6z"/>
<path style="fill:#8C3292;" d="M215.2,148c-16.4,0-29.6,13.2-29.6,29.6s13.2,29.6,29.6,29.6s29.6-13.2,29.6-29.6
	S231.6,148,215.2,148"/>
<path style="fill:#6A277A;" d="M188.4,150.8c6.8-6.8,16.4-11.2,26.8-11.2s20,4.4,26.8,11.2l0,0c6.8,6.8,11.2,16.4,11.2,26.8
	c0,10.4-4,19.6-10.8,26.4l-0.4,0.4c-6.8,6.8-16.4,11.2-26.8,11.2s-20-4.4-26.8-11.2c-6.8-6.8-11.2-16.4-11.2-26.8
	S181.6,157.6,188.4,150.8L188.4,150.8L188.4,150.8z M215.2,156c-6,0-11.2,2.4-15.2,6.4l0,0c-4,4-6.4,9.2-6.4,15.2s2.4,11.2,6.4,15.2
	s9.2,6.4,15.2,6.4s11.2-2.4,15.2-6.4l0.4-0.4c3.6-4,6-9.2,6-14.8c0-6-2.4-11.2-6.4-15.2C226.8,158.4,221.2,156,215.2,156z"/>
<path style="fill:#8C3292;" d="M126,199.6c16.4,0,29.6,13.2,29.6,29.6s-13.2,29.6-29.6,29.6s-29.6-13.2-29.6-29.6
	C96.4,213.2,109.6,199.6,126,199.6"/>
<path style="fill:#6A277A;" d="M141.2,214.4c-4-4-9.2-6.4-15.2-6.4c-5.6,0-11.2,2.4-14.8,6l-0.4,0.4c-4,4-6.4,9.2-6.4,15.2
	s2.4,11.2,6.4,15.2s9.2,6.4,15.2,6.4s11.2-2.4,15.2-6.4l0,0c4-4,6.4-9.2,6.4-15.2S145.2,218,141.2,214.4 M126,191.6
	c10.4,0,20,4.4,26.8,11.2l0,0c6.8,6.8,11.2,16.4,11.2,26.8s-4.4,20-11.2,26.8l0,0l0,0c-6.8,6.8-16.4,11.2-26.8,11.2
	c-10.4,0-20-4.4-26.8-11.2C92.4,249.6,88,240,88,229.6s4.4-20,11.2-26.8l0.4-0.4C106.8,195.6,116,191.6,126,191.6z"/>
<path style="fill:#8C3292;" d="M245.2,199.6c16.4,0,29.6,13.2,29.6,29.6s-13.2,29.6-29.6,29.6s-29.6-13.2-29.6-29.6
	C215.2,213.2,228.8,199.6,245.2,199.6"/>
<path style="fill:#6A277A;" d="M260.4,214.4c-4-4-9.2-6.4-15.2-6.4c-5.6,0-10.8,2.4-14.8,6l-0.4,0.4c-4,4-6.4,9.2-6.4,15.2
	s2.4,11.2,6.4,15.2s9.2,6.4,15.2,6.4s11.2-2.4,15.2-6.4l0,0c4-4,6.4-9.2,6.4-15.2C266.4,223.6,264,218,260.4,214.4 M245.2,191.6
	c10.4,0,20,4.4,26.8,11.2l0,0c6.8,6.8,11.2,16.4,11.2,26.8s-4.4,20-11.2,26.8l0,0l0,0c-6.8,6.8-16.4,11.2-26.8,11.2
	s-20-4.4-26.8-11.2c-6.8-6.8-11.2-16.4-11.2-26.8s4.4-20,11.2-26.8l0.4-0.4C225.6,195.6,234.8,191.6,245.2,191.6z"/>
<path style="fill:#8C3292;" d="M274.8,148c16.4,0,29.6,13.2,29.6,29.6s-13.2,29.6-29.6,29.6s-29.6-13.2-29.6-29.6
	S258.4,148,274.8,148"/>
<path style="fill:#6A277A;" d="M290,162.4c-4-4-9.2-6.4-15.2-6.4c-5.6,0-11.2,2.4-14.8,6l-0.4,0.4c-4,4-6.4,9.2-6.4,15.2
	s2.4,11.2,6.4,15.2c4,4,9.2,6.4,15.2,6.4s11.2-2.4,15.2-6.4l0,0c4-4,6.4-9.2,6.4-15.2C296.4,171.6,294,166.4,290,162.4 M274.8,139.6
	c10.4,0,20,4.4,26.8,11.2l0,0c6.8,6.8,11.2,16.4,11.2,26.8c0,10.4-4.4,20-11.2,26.8l0,0l0,0c-6.8,6.8-16.4,11.2-26.8,11.2
	s-20-4.4-26.8-11.2c-6.8-6.8-11.2-16.4-11.2-26.8c0-10.4,4.4-20,11.2-26.8l0.4-0.4C255.2,143.6,264.4,139.6,274.8,139.6z"/>
<path style="fill:#8C3292;" d="M96.4,148c16.4,0,29.6,13.2,29.6,29.6s-13.2,29.6-29.6,29.6S66.8,194,66.8,177.6S80,148,96.4,148"/>
<path style="fill:#6A277A;" d="M111.6,162.4c-4-4-9.2-6.4-15.2-6.4c-5.6,0-10.8,2.4-14.8,6l-0.4,0.4c-4,4-6.4,9.2-6.4,15.2
	s2.4,11.2,6.4,15.2s9.2,6.4,15.2,6.4s11.2-2.4,15.2-6.4l0,0c4-4,6.4-9.2,6.4-15.2S115.6,166.4,111.6,162.4 M96.4,139.6
	c10.4,0,20,4.4,26.8,11.2l0,0c6.8,6.8,11.2,16.4,11.2,26.8c0,10.4-4.4,20-11.2,26.8l0,0l0,0c-6.8,6.8-16.4,11.2-26.8,11.2
	c-10.4,0-20-4.4-26.8-11.2c-6.8-6.8-11.2-16.4-11.2-26.8c0-10.4,4.4-20,11.2-26.8l0.4-0.4C76.8,143.6,86,139.6,96.4,139.6z"/>
<path style="fill:#8C3292;" d="M126.4,96.4c16.4,0,29.6,13.2,29.6,29.6c0,16.4-13.2,29.6-29.6,29.6S96.8,142.4,96.8,126
	C96.4,109.6,110,96.4,126.4,96.4"/>
<path style="fill:#6A277A;" d="M141.6,110.8c-4-4-9.2-6.4-15.2-6.4c-5.6,0-10.8,2.4-14.8,6l-0.4,0.4c-4,4-6.4,9.2-6.4,15.2
	c0,6,2.4,11.2,6.4,15.2s9.2,6.4,15.2,6.4s11.2-2.4,15.2-6.4l0,0c4-4,6.4-9.2,6.4-15.2C148,120,145.6,114.8,141.6,110.8 M126.4,88
	c10.4,0,20,4.4,26.8,11.2l0,0c6.8,6.8,11.2,16.4,11.2,26.8s-4.4,20-11.2,26.8l0,0l0,0c-6.8,6.8-16.4,11.2-26.8,11.2
	c-10.4,0-20-4.4-26.8-11.2c-6.8-6.8-11.2-16.4-11.2-26.8s4.4-20,11.2-26.8l0.4-0.4C106.8,92,116,88,126.4,88z"/>
<path style="fill:#8C3292;" d="M245.2,96.4c16.4,0,29.6,13.2,29.6,29.6c0,16.4-13.2,29.6-29.6,29.6s-29.6-13.2-29.6-29.6
	C215.2,109.6,228.8,96.4,245.2,96.4"/>
<path style="fill:#6A277A;" d="M260.4,110.8c-4-4-9.2-6.4-15.2-6.4c-5.6,0-10.8,2.4-14.8,6l-0.4,0.4c-4,4-6.4,9.2-6.4,15.2
	c0,6,2.4,11.2,6.4,15.2s9.2,6.4,15.2,6.4s11.2-2.4,15.2-6.4l0,0c4-4,6.4-9.2,6.4-15.2C266.4,120,264,114.8,260.4,110.8 M245.2,88
	c10.4,0,20,4.4,26.8,11.2l0,0c6.8,6.8,11.2,16.4,11.2,26.8s-4.4,20-11.2,26.8l0,0l0,0c-6.8,6.8-16.4,11.2-26.8,11.2
	s-20-4.4-26.8-11.2c-6.8-6.8-11.2-16.4-11.2-26.8s4.4-20,11.2-26.8l0.4-0.4C225.6,92,234.8,88,245.2,88z"/>
<g>
</g>
<g>
</g>
<g>
</g>
<g>
</g>
<g>
</g>
<g>
</g>
<g>
</g>
<g>
</g>
<g>
</g>
<g>
</g>
<g>
</g>
<g>
</g>
<g>
</g>
<g>
</g>
<g>
</g>
</svg>
