<?xml version="1.0" encoding="iso-8859-1"?>
<!-- Generator: Adobe Illustrator 19.0.0, SVG Export Plug-In . SVG Version: 6.00 Build 0)  -->
<svg version="1.1" id="Capa_1" xmlns="http://www.w3.org/2000/svg" xmlns:xlink="http://www.w3.org/1999/xlink" x="0px" y="0px"
	 viewBox="0 0 328.4 328.4" style="enable-background:new 0 0 328.4 328.4;" xml:space="preserve">
<path style="fill:#F16122;" d="M164.2,88.4c66.4,0,120,53.6,120,120s-53.6,120-120,120s-120-53.6-120-120S97.8,88.4,164.2,88.4"/>
<path style="fill:#278943;" d="M155.8,26.4c0-7.2,2.8-14,8-18.8l0,0c4.8-4.8,11.6-7.6,18.8-7.6c4.4,0,8.4,3.6,8.4,8.4
	c0,4.4-3.6,8.4-8.4,8.4c-2.8,0-5.2,1.2-7.2,2.8l0,0l0,0c-2,2-2.8,4.4-2.8,7.2v62c0,4.4-3.6,8.4-8.4,8.4c-4.4,0-8.4-3.6-8.4-8.4V26.4
	z"/>
<path style="fill:#7EB642;" d="M70.6,11.2C160.2,148,228.2-32,70.6,11.2"/>
<g>
</g>
<g>
</g>
<g>
</g>
<g>
</g>
<g>
</g>
<g>
</g>
<g>
</g>
<g>
</g>
<g>
</g>
<g>
</g>
<g>
</g>
<g>
</g>
<g>
</g>
<g>
</g>
<g>
</g>
</svg>
