<?xml version="1.0" encoding="iso-8859-1"?>
<!-- Generator: Adobe Illustrator 19.0.0, SVG Export Plug-In . SVG Version: 6.00 Build 0)  -->
<svg version="1.1" id="Capa_1" xmlns="http://www.w3.org/2000/svg" xmlns:xlink="http://www.w3.org/1999/xlink" x="0px" y="0px"
	 viewBox="0 0 318.3 318.3" style="enable-background:new 0 0 318.3 318.3;" xml:space="preserve">
<g>
	<path style="fill:#D73426;" d="M159.15,0l66.8,134.4l66.8,134.4c-89.2,65.6-178,66.4-267.2,0l66.8-134.4L159.15,0z"/>
	<path style="fill:#7EB642;" d="M268.35,220c-72.8,44-146,44.8-218.8,0l-24,48.8c89.2,66.4,178,65.6,267.2,0L268.35,220z"/>
	<g>
		<path style="fill:#95221D;" d="M152.75,60.4c6.8,0,12.4,5.6,12.4,12.4c0,6.8-5.6,12.4-12.4,12.4c-6.8,0-12.4-5.6-12.4-12.4
			C140.35,66,145.95,60.4,152.75,60.4"/>
		<path style="fill:#95221D;" d="M167.15,127.2c6.8,0,12.4,5.6,12.4,12.4c0,6.8-5.6,12.4-12.4,12.4s-12.4-5.6-12.4-12.4
			C155.15,132.4,160.35,127.2,167.15,127.2"/>
		<path style="fill:#95221D;" d="M211.55,169.6c6.8,0,12.4,5.6,12.4,12.4s-5.6,12.4-12.4,12.4s-12.4-5.6-12.4-12.4
			S204.75,169.6,211.55,169.6"/>
		<path style="fill:#95221D;" d="M180.35,210.4c6.8,0,12.4,5.6,12.4,12.4s-5.6,12.4-12.4,12.4s-12.4-5.6-12.4-12.4
			C167.95,216,173.55,210.4,180.35,210.4"/>
		<path style="fill:#95221D;" d="M114.75,198c6.8,0,12.4,5.6,12.4,12.4s-5.6,12.4-12.4,12.4c-6.8,0-12.4-5.6-12.4-12.4
			C102.35,203.6,107.95,198,114.75,198"/>
		<path style="fill:#95221D;" d="M114.75,144.8c6.8,0,12.4,5.6,12.4,12.4s-5.6,12.4-12.4,12.4c-6.8,0-12.4-5.6-12.4-12.4
			C102.35,150.4,107.95,144.8,114.75,144.8"/>
	</g>
</g>
<g>
</g>
<g>
</g>
<g>
</g>
<g>
</g>
<g>
</g>
<g>
</g>
<g>
</g>
<g>
</g>
<g>
</g>
<g>
</g>
<g>
</g>
<g>
</g>
<g>
</g>
<g>
</g>
<g>
</g>
</svg>
