<?xml version="1.0" encoding="iso-8859-1"?>
<!-- Generator: Adobe Illustrator 19.0.0, SVG Export Plug-In . SVG Version: 6.00 Build 0)  -->
<svg version="1.1" id="Capa_1" xmlns="http://www.w3.org/2000/svg" xmlns:xlink="http://www.w3.org/1999/xlink" x="0px" y="0px"
	 viewBox="0 0 332.93 332.93" style="enable-background:new 0 0 332.93 332.93;" xml:space="preserve">
<path style="fill:#278943;" d="M174.865,146.8c0,4.4-3.6,8.4-8.4,8.4c-4.4,0-8.4-3.6-8.4-8.4v-118c0-8,3.2-15.2,8.4-20.4l0,0l0,0
	l0,0c5.2-5.2,12.4-8.4,20.4-8.4c4.4,0,8.4,3.6,8.4,8.4s-3.6,8.4-8.4,8.4c-3.6,0-6.4,1.2-8.8,3.6l0,0c-2.4,2.4-3.6,5.2-3.6,8.8v117.6
	H174.865z"/>
<g>
	<path style="fill:#7EB642;" d="M61.265,34.8C161.665,188.4,238.465-14,61.265,34.8"/>
	<path style="fill:#D73426;" d="M298.865,186.4c0-38.8-31.6-70.4-70.4-70.4c-20.8,0-40.4,9.2-53.6,24.8v5.6c0,4.4-3.6,8.4-8.4,8.4
		c-4.4,0-8.4-3.6-8.4-8.4v-5.6c-13.2-15.6-32.8-24.8-53.6-24.8c-38.8,0-70.4,31.6-70.4,70.4c0,4,0.4,8.4,1.2,12.4
		c9.2,49.6,76.4,190,131.2,110c54.8,80,122-60.4,131.2-110C298.465,194.8,298.865,190.4,298.865,186.4"/>
</g>
<g>
</g>
<g>
</g>
<g>
</g>
<g>
</g>
<g>
</g>
<g>
</g>
<g>
</g>
<g>
</g>
<g>
</g>
<g>
</g>
<g>
</g>
<g>
</g>
<g>
</g>
<g>
</g>
<g>
</g>
</svg>
