<?xml version="1.0" encoding="iso-8859-1"?>
<!-- Generator: Adobe Illustrator 19.0.0, SVG Export Plug-In . SVG Version: 6.00 Build 0)  -->
<svg version="1.1" id="Capa_1" xmlns="http://www.w3.org/2000/svg" xmlns:xlink="http://www.w3.org/1999/xlink" x="0px" y="0px"
	 viewBox="0 0 336 336" style="enable-background:new 0 0 336 336;" xml:space="preserve">
<g>
	<polygon style="fill:#FFCC03;" points="168,8.4 229.2,100.8 336,130.4 267.2,217.2 272,327.6 168,289.2 64,327.6 68.8,217.2 
		0,130.4 106.8,100.8 	"/>
	<path style="fill:#FFE785;" d="M176,97.6l9.6,62l62.4-10c4.4-0.8,8.8,2.4,9.2,6.8c0.4,3.6-1.2,7.2-4.4,8.8l0,0l-56,28.4l28.8,56
		c2,4,0.4,8.8-3.6,11.2c-3.2,1.6-7.2,0.8-9.6-1.6l0,0L168,214.8l-44.4,44.8c-3.2,3.2-8.4,3.2-11.6,0c-2.8-2.8-3.2-6.8-1.2-10
		l28.4-55.6l-56-28.4c-4-2-5.6-6.8-3.6-11.2c1.6-3.2,5.6-5.2,8.8-4.4l62,10l9.6-62.4c0.8-4.4,4.8-7.6,9.2-6.8
		C172.8,91.2,175.6,94,176,97.6"/>
</g>
<g>
</g>
<g>
</g>
<g>
</g>
<g>
</g>
<g>
</g>
<g>
</g>
<g>
</g>
<g>
</g>
<g>
</g>
<g>
</g>
<g>
</g>
<g>
</g>
<g>
</g>
<g>
</g>
<g>
</g>
</svg>
