<?xml version="1.0" encoding="iso-8859-1"?>
<!-- Generator: Adobe Illustrator 19.0.0, SVG Export Plug-In . SVG Version: 6.00 Build 0)  -->
<svg version="1.1" id="Capa_1" xmlns="http://www.w3.org/2000/svg" xmlns:xlink="http://www.w3.org/1999/xlink" x="0px" y="0px"
	 viewBox="0 0 329.604 329.604" style="enable-background:new 0 0 329.604 329.604;" xml:space="preserve">
<g>
	<path style="fill:#D73426;" d="M66.404,183.277c36.8,0,66.4,30,66.4,66.4c0,36.8-30,66.4-66.4,66.4c-36.8,0-66.4-30-66.4-66.4
		C-0.396,213.277,29.604,183.277,66.404,183.277"/>
	<path style="fill:#D73426;" d="M263.204,192.477c36.8,0,66.4,30,66.4,66.4c0,36.8-30,66.4-66.4,66.4c-36.8,0-66.4-30-66.4-66.4
		C196.804,222.077,226.404,192.477,263.204,192.477"/>
</g>
<g>
	<path style="fill:#278943;" d="M80.404,186.077c-1.2,4.4-6,6.8-10.4,5.6c-4.4-1.2-6.8-6-5.6-10.4c0-0.4,39.2-131.6,129.2-152.8
		c4.4-1.2,8.8,1.6,10,6c1.2,4.4-1.6,8.8-6,10C116.804,63.277,80.404,185.677,80.404,186.077"/>
	<path style="fill:#278943;" d="M248.804,190.877c2.8,3.6,2,8.8-1.6,11.6c-3.6,2.8-8.8,2-11.6-1.6c-0.4-0.4-83.2-112.4-37.6-192.4
		c2.4-4,7.2-5.2,11.2-3.2c4,2.4,5.2,7.2,3.2,11.2C172.004,86.877,248.404,190.477,248.804,190.877"/>
</g>
<path style="fill:#7EB642;" d="M287.204,49.677C198.004,186.477,129.604,6.477,287.204,49.677"/>
<g>
</g>
<g>
</g>
<g>
</g>
<g>
</g>
<g>
</g>
<g>
</g>
<g>
</g>
<g>
</g>
<g>
</g>
<g>
</g>
<g>
</g>
<g>
</g>
<g>
</g>
<g>
</g>
<g>
</g>
</svg>
