<?xml version="1.0" encoding="iso-8859-1"?>
<!-- Generator: Adobe Illustrator 19.0.0, SVG Export Plug-In . SVG Version: 6.00 Build 0)  -->
<svg version="1.1" id="Capa_1" xmlns="http://www.w3.org/2000/svg" xmlns:xlink="http://www.w3.org/1999/xlink" x="0px" y="0px"
	 viewBox="0 0 375.2 375.2" style="enable-background:new 0 0 375.2 375.2;" xml:space="preserve">
<path style="fill:#FFCC03;" d="M187.6,88.4L187.6,88.4c32,0,58.4,26.4,58.4,58.4v36.8c28,18.8,46.4,50.8,46.4,86.8
	c0,58-46.8,104.8-104.8,104.8S82.8,328.4,82.8,270.4c0-36,18.4-68,46.4-86.8v-36.8C129.2,114.8,155.6,88.4,187.6,88.4"/>
<path style="fill:#278943;" d="M179.2,26.4c0-7.2,2.8-14,7.6-18.8l0,0l0,0l0,0c4.8-4.8,11.6-7.6,18.8-7.6c4.4,0,8.4,3.6,8.4,8.4
	c0,4.4-3.6,8.4-8.4,8.4c-2.8,0-5.2,1.2-7.2,2.8l0,0c-2,2-2.8,4.4-2.8,7.2v62c0,4.4-3.6,8.4-8.4,8.4c-4.4,0-8.4-3.6-8.4-8.4V26.4
	H179.2z"/>
<path style="fill:#7EB642;" d="M94,11.2C183.6,148,251.6-32,94,11.2"/>
<g>
</g>
<g>
</g>
<g>
</g>
<g>
</g>
<g>
</g>
<g>
</g>
<g>
</g>
<g>
</g>
<g>
</g>
<g>
</g>
<g>
</g>
<g>
</g>
<g>
</g>
<g>
</g>
<g>
</g>
</svg>
