<?xml version="1.0" encoding="iso-8859-1"?>
<!-- Generator: Adobe Illustrator 19.0.0, SVG Export Plug-In . SVG Version: 6.00 Build 0)  -->
<svg version="1.1" id="Capa_1" xmlns="http://www.w3.org/2000/svg" xmlns:xlink="http://www.w3.org/1999/xlink" x="0px" y="0px"
	 viewBox="0 0 363.9 363.9" style="enable-background:new 0 0 363.9 363.9;" xml:space="preserve">
<g>
	<path style="fill:#E5165F;" d="M163.55,120c11.2,7.2,25.6,7.2,36.8,0c7.2,8.4,18,12.4,28.8,10.8c12,2,26.8-0.8,44.4-11.2
		c104,31.6-32,231.2-78.4,242.8c-8.8,2-17.6,2-26.4,0c-46.4-11.2-182.4-211.2-78-242.8c17.6,10.8,32.4,13.6,44.4,11.2
		C145.55,132,156.35,128,163.55,120"/>
	<path style="fill:#278943;" d="M181.95,0C59.95,167.2,303.95,167.2,181.95,0"/>
	<path style="fill:#7EB642;" d="M114.75,8.8c-44.8,116.8,23.6,140,48.8,111.2c-15.2-10-24-33.6-9.2-71.2
		C145.15,36.4,132.35,23.2,114.75,8.8"/>
	<path style="fill:#278943;" d="M41.55,74c38.8,48,71.6,60.8,93.2,56.8c-20.4-2.4-40.4-24-33.6-71.6C84.75,60.4,65.15,64.8,41.55,74
		"/>
	<path style="fill:#7EB642;" d="M248.75,8.8c-17.6,14-30.4,27.6-39.2,39.6c14.8,37.6,5.6,61.2-9.2,71.2
		C225.55,148.8,293.95,125.6,248.75,8.8"/>
	<path style="fill:#278943;" d="M322.35,74c-38.8,48-71.6,60.8-93.6,56.8c20.4-2.4,40-24,33.6-71.6
		C279.15,60.4,298.75,64.8,322.35,74"/>
	<g>
		<path style="fill:#A21B31;" d="M110.75,163.6c6.8,0,12.4,5.6,12.4,12.4s-5.6,12.4-12.4,12.4c-6.8,0-12.4-5.6-12.4-12.4
			C98.35,168.8,103.95,163.6,110.75,163.6"/>
		<path style="fill:#A21B31;" d="M169.55,186c6.8,0,12.4,5.6,12.4,12.4s-5.6,12.4-12.4,12.4c-6.8,0-12.4-5.6-12.4-12.4
			C157.15,191.2,162.75,186,169.55,186"/>
		<path style="fill:#A21B31;" d="M249.15,154c6.8,0,12.4,5.6,12.4,12.4c0,6.8-5.6,12.4-12.4,12.4s-12.4-5.6-12.4-12.4
			C236.75,159.6,242.35,154,249.15,154"/>
		<path style="fill:#A21B31;" d="M228.35,234.4c6.8,0,12.4,5.6,12.4,12.4s-5.6,12.4-12.4,12.4s-12.4-5.6-12.4-12.4
			S221.55,234.4,228.35,234.4"/>
		<path style="fill:#A21B31;" d="M132.35,249.2c6.8,0,12.4,5.6,12.4,12.4s-5.6,12.4-12.4,12.4c-6.8,0-12.4-5.6-12.4-12.4
			C120.35,254.8,125.55,249.2,132.35,249.2"/>
		<path style="fill:#A21B31;" d="M188.75,295.6c6.8,0,12.4,5.6,12.4,12.4s-5.6,12.4-12.4,12.4c-6.8,0-12.4-5.6-12.4-12.4
			S181.95,295.6,188.75,295.6"/>
	</g>
</g>
<g>
</g>
<g>
</g>
<g>
</g>
<g>
</g>
<g>
</g>
<g>
</g>
<g>
</g>
<g>
</g>
<g>
</g>
<g>
</g>
<g>
</g>
<g>
</g>
<g>
</g>
<g>
</g>
<g>
</g>
</svg>
